<?xml version="1.0" encoding="UTF-8" standalone="no"?>
<svg
   xmlns:dc="http://purl.org/dc/elements/1.1/"
   xmlns:cc="http://creativecommons.org/ns#"
   xmlns:rdf="http://www.w3.org/1999/02/22-rdf-syntax-ns#"
   xmlns:svg="http://www.w3.org/2000/svg"
   xmlns="http://www.w3.org/2000/svg"
   height="106"
   width="337.60001"
   version="1.1"
   id="Warstwa_1"
   x="0px"
   y="0px"
   viewBox="0 0 337.6 106"
   enable-background="new 0 0 337.6 85"
   xml:space="preserve"><metadata
   id="metadata85"><rdf:RDF><cc:Work
       rdf:about=""><dc:format>image/svg+xml</dc:format><dc:type
         rdf:resource="http://purl.org/dc/dcmitype/StillImage" /><dc:title></dc:title></cc:Work></rdf:RDF></metadata><defs
   id="defs83" />
<g
   transform="translate(0,21)"
   id="g78">
	<path
   style="clip-rule:evenodd;fill:#388e92;fill-rule:evenodd"
   d="m 27.934824,-9.4153285 c -18.6000008,0 -27.90000082,9.30000004 -27.90000082,27.9000005 v 45.1 H 72.934824 V -9.4153285 Z"
   id="path2" />
	<path
   style="clip-rule:evenodd;fill:#eac716;fill-rule:evenodd"
   d="m 313.83482,57.484672 c 0,0 8.8,-0.2 9.9,6.1 h -4.1 c 0,0 -0.2,2.6 -0.8,3.7 l -5.7,-3 v 3 c 0,0 -5.3,-0.9 -5.4,-5.7 -0.2,-4.8 6.1,-4.1 6.1,-4.1 z"
   id="path4" />
	<path
   style="fill:none;stroke:#000003;stroke-width:0.0649;stroke-miterlimit:22.92560005"
   stroke-miterlimit="22.9256"
   d="m 313.83482,57.484672 c 0,0 8.8,-0.2 9.9,6.1 h -4.1 c 0,0 -0.2,2.6 -0.8,3.7 l -5.7,-3 v 3 c 0,0 -5.3,-0.9 -5.4,-5.7 -0.2,-4.8 6.1,-4.1 6.1,-4.1 z"
   id="path6" />
	<path
   style="clip-rule:evenodd;fill:#eac716;fill-rule:evenodd"
   d="m 287.13482,57.484672 c 0,0 -10.2,-0.2 -11.5,6.1 h 4.8 c 0,0 0.2,2.6 0.9,3.7 l 6.7,-3 v 3 c 0,0 6.1,-0.9 6.3,-5.7 0.2,-4.8 -7.2,-4.1 -7.2,-4.1 z"
   id="path8" />
	<path
   style="fill:none;stroke:#000003;stroke-width:0.0649;stroke-miterlimit:22.92560005"
   stroke-miterlimit="22.9256"
   d="m 287.13482,57.484672 c 0,0 -10.2,-0.2 -11.5,6.1 h 4.8 c 0,0 0.2,2.6 0.9,3.7 l 6.7,-3 v 3 c 0,0 6.1,-0.9 6.3,-5.7 0.2,-4.8 -7.2,-4.1 -7.2,-4.1 z"
   id="path10" />
	<path
   style="clip-rule:evenodd;fill:#000002;fill-rule:evenodd"
   d="m 300.23482,-6.8153285 c -1.9,0 -17.4,0.7 -22,16.9000005 -2.1,7.4 -2.4,9.1 -2.4,9.9 0,0 0,1.3 0,1.3 -7.2,5.4 -9.9,12.9 -6.7,22.9 0,0 3.2,-9.5 5.7,-9.5 0,0 -3,28.1 27.1,27.6 29.2,0 27.7,-27.6 27.7,-27.6 2.9,0 6.5,9.9 6.5,9.9 5.6,-15 -5.3,-20.6 -7.6,-24.5 0,0 0,-0.1 -0.1,-0.1 0.1,-0.4 -0.4,-2.6 -2.9,-9.9 -5.9,-17.3000005 -25.1,-16.9000005 -25.1,-16.9000005 0,0 -0.1,0 -0.2,0 z"
   id="path12" />
	<path
   style="clip-rule:evenodd;fill:#1d333f;fill-rule:evenodd"
   d="m 324.53482,31.984672 c 0,0 8.5,-1 11.6,9.5 0,0 4.7,-8.7 -9.3,-20.5 0,0 -1.3,-28.4000005 -29.1,-27.0000005 V 49.684672 c 0,0 24.1,5.6 26.8,-17.7 z"
   id="path14" />
	<path
   style="clip-rule:evenodd;fill:#1d333f;fill-rule:evenodd"
   d="m 279.03482,31.984672 c 0,0 -7.2,-1 -9.8,9.5 0,0 -4.4,-10.5 7.8,-19.3 0,0 1.1,-29.6000005 24.5,-28.1000005 V 49.784672 c 0.1,-0.1 -20.3,5.5 -22.5,-17.8 z"
   id="path16" />
	<path
   style="clip-rule:evenodd;fill:#e0e6e9;fill-rule:evenodd"
   d="m 288.03482,24.384672 c 0,0 22.6,-0.7 26.8,0 0,0 6.7,4.2 6.7,17.1 0,6.2 -4.2,17.6 -21.1,17.6 0,0 -18.1,-0.9 -18.1,-17.6 -0.1,0 -1.7,-10.1 5.7,-17.1"
   id="path18" />
	<path
   style="clip-rule:evenodd;fill:#ffffff;fill-rule:evenodd"
   d="m 288.03482,24.384672 c 0,0 20.8,-1 25.1,-0.3 0,0 8.2,2.9 8.2,14.1 0,3.6 -3.6,14.3 -19.7,14.3 0,0 -19.5,0.2 -19.5,-14.3 0,0 -0.4,-8.6 5.9,-13.8 z"
   id="path20" />
	<path
   style="clip-rule:evenodd;fill:#9ba4ae;fill-rule:evenodd"
   d="m 294.73482,23.584672 c 0,0 7.1,-3.1 14.2,0 0,0 -5.6,7.4 -7.1,7.4 -0.9,0 -4.9,-3 -7.1,-7.4"
   id="path22" />
	<path
   style="clip-rule:evenodd;fill:#000003;fill-rule:evenodd"
   d="m 293.23482,23.584672 c 0,0 7.1,-3.1 14.2,0 0,0 -5.6,7.4 -7.1,7.4 -0.9,0 -4.9,-3 -7.1,-7.4"
   id="path24" />
	<path
   style="clip-rule:evenodd;fill:#000002;fill-rule:evenodd"
   d="m 301.43482,11.084672 c 0,0 -9.7,-4.5000002 -14.5,-4.9000002 -4.7,-0.3 -10.5,11.3000002 -3,16.7000002 6.3,4.5 12,1.3 17.4,-0.6 0,0 6.5,3.3 12.9,2.4 8.9,-1.2 11.7,-19.1000002 1.4,-18.3000002 0.1,0 -5.5,-1.8 -14.2,4.7000002 z"
   id="path26" />
	<path
   style="clip-rule:evenodd;fill:#ffffff;fill-rule:evenodd"
   d="m 299.93482,13.984672 c 0,0 -12.1,-4.8000001 -14,-5.2000001 0,0 -4.3,8.1000001 3.6,11.5000001 0,0 7.4,2.6 10.4,-6.3 z"
   id="path28" />
	<path
   style="clip-rule:evenodd;fill:#ffffff;fill-rule:evenodd"
   d="m 317.23482,8.6846719 c 0,0 -12.3,4.5000001 -13.9,5.5000001 0,0 2.2,8.9 10.3,6.2 0,-0.1 7.3,-3.1 3.6,-11.7000001 z"
   id="path30" />
	<path
   style="clip-rule:evenodd;fill:#4d5b5c;fill-rule:evenodd"
   d="m 286.93482,5.9846718 c 0,0 9,2.4000001 14.1,5.0000002 0,0 11.2,-4.8000002 14.7,-4.8000002 0,0 -0.1,-11.3000003 -15.4,-11.3000003 -0.1,0 -13.4,1 -13.4,11.1000003 z"
   id="path32" />
	<path
   style="clip-rule:evenodd;fill:#eac716;fill-rule:evenodd"
   d="m 293.23482,22.184672 c 0,0 7.1,-3.1 14.2,0 0,0 -5.6,7.4 -7.1,7.4 -0.9,0 -4.9,-3 -7.1,-7.4 z"
   id="path34" />
	<path
   style="fill:none;stroke:#000003;stroke-width:0.0649;stroke-miterlimit:22.92560005"
   stroke-miterlimit="22.9256"
   d="m 293.23482,22.184672 c 0,0 7.1,-3.1 14.2,0 0,0 -5.6,7.4 -7.1,7.4 -0.9,0 -4.9,-3 -7.1,-7.4 z"
   id="path36" />
	<path
   style="clip-rule:evenodd;fill:#000002;fill-rule:evenodd"
   d="m 297.13482,14.084672 c 0,1.7 -1.4,3.1 -3.1,3.1 -1.7,0 -3.1,-1.4 -3.1,-3.1 0,-1.7 1.4,-3.1 3.1,-3.1 1.7,0 3.1,1.4 3.1,3.1"
   id="path38" />
	<path
   style="clip-rule:evenodd;fill:#000002;fill-rule:evenodd"
   d="m 312.73482,14.084672 c 0,1.7 -1.4,3.1 -3.1,3.1 -1.7,0 -3.1,-1.4 -3.1,-3.1 0,-1.7 1.4,-3.1 3.1,-3.1 1.7,0 3.1,1.4 3.1,3.1"
   id="path40" />
	<path
   style="clip-rule:evenodd;fill:#ffffff;fill-rule:evenodd"
   d="m 297.13482,13.184672 c 0,0.6 -0.5,1.1 -1.1,1.1 -0.6,0 -1.1,-0.5 -1.1,-1.1 0,-0.6 0.5,-1.1 1.1,-1.1 0.6,0 1.1,0.5 1.1,1.1"
   id="path42" />
	<path
   style="clip-rule:evenodd;fill:#ffffff;fill-rule:evenodd"
   d="m 311.63482,12.084672 c 0,0.6 -0.5,1.1 -1.1,1.1 -0.6,0 -1.1,-0.5 -1.1,-1.1 0,-0.6 0.5,-1.1 1.1,-1.1 0.7,0 1.1,0.5 1.1,1.1"
   id="path44" />
	<path
   style="clip-rule:evenodd;fill:#ffffff;fill-rule:evenodd"
   d="m 300.73482,22.884672 c 0,0 -3.3,-0.6 -5,0.9 l 3.5,3.8 z"
   id="path46" />
	<path
   style="clip-rule:evenodd;fill:#4d5b5c;fill-rule:evenodd"
   d="m 277.03482,22.184672 c 0,0 2.4,-1.5 3.3,0 0.9,1.5 -10.9,9.5 -11.1,19.3 0,0 -0.2,1.1 -0.5,-1.7 -0.2,-2.9 -1.9,-10.2 8.3,-17.6 z"
   id="path48" />
	<path
   style="clip-rule:evenodd;fill:#4d5b5c;fill-rule:evenodd"
   d="m 326.83482,20.984672 c 0,0 -1.7,-0.3 -2.8,1.1 -1,1.5 11.9,9.5 12.1,19.3 0,0 0.2,1.1 0.5,-1.7 0.3,-2.8 1.3,-11.3 -9.8,-18.7 z"
   id="path50" />
	
	<path
   style="fill:#388e92"
   d="m 81.934824,-17.715328 h 3.9 c 1,0 1.9,0.3 2.6,1 0.7,0.7 1.1,1.5 1.1,2.5 v 33.6 h -7.6 z"
   id="path54" />
	<path
   style="fill:#388e92"
   d="m 94.134824,-17.715328 h 3.9 c 1,0 1.900001,0.4 2.599996,1.1 0.7,0.7 1.1,1.6 1.1,2.6 v 2.3 h -7.599996 z m 0,8.3999995 h 3.9 c 1,0 1.900001,0.4 2.599996,1.1 0.7,0.7 1.1,1.6 1.1,2.6 V 19.484672 h -7.599996 z"
   id="path56" />
	<path
   style="fill:#388e92"
   d="m 129.83482,19.384672 h -3.8 c -1.1,0 -2,-0.3 -2.7,-1 -0.7,-0.7 -1,-1.6 -1,-2.6 V 1.0846715 c 0,-1.69999996 -0.5,-3 -1.6,-3.8 -1,-0.8 -2.2,-1.2 -3.5,-1.2 -1.3,0 -2.4,0.4 -3.5,1.2 -1,0.8 -1.5,2.00000004 -1.5,3.8 V 19.484672 h -7.6 V 2.5846715 c 0,-4.9 1.3,-8.2 3.8,-9.8 2.6,-1.7 5.4,-2.6 8.5,-2.7 3.2,0 6.1,0.8 8.7,2.5 2.7,1.6 4,5 4,10 V 19.384672 Z"
   id="path58" />
	<path
   style="fill:#388e92"
   d="M 158.83482,-9.3153285 V 7.4846718 c 0,5.1000002 -1.3,8.5000002 -4,10.0000002 -2.7,1.6 -5.6,2.4 -8.7,2.4 -3.1,-0.1 -5.9,-1 -8.5,-2.6 -2.6,-1.6 -3.8,-4.9 -3.8,-9.8000002 V -9.3153285 h 7.6 V 9.0846719 c 0,1.7000001 0.5,3.0000001 1.5,3.8000001 1,0.8 2.2,1.2 3.5,1.2 1.3,0 2.5,-0.4 3.5,-1.2 1.1,-0.8 1.6,-2 1.6,-3.8000001 V -5.6153285 c 0,-1 0.3,-1.9 1,-2.6 0.7,-0.7 1.6,-1.1 2.7,-1.1 z"
   id="path60" />
	<path
   style="fill:#388e92"
   d="m 190.53482,19.384672 h -8.6 l -5.1,-9.1 -5.3,9.1 h -8.7 l 9.4,-14.8000002 -8.9,-13.9000003 h 8.3 l 5,8.60000004 5.5,-9.29999954 c 0.6,-1.3 1.7,-1.9 3.2,-1.9 h 6.5 l -10.8,16.6999998 z"
   id="path62" />
	<path
   style="fill:#1d333f"
   d="m 77.534824,53.584672 h 7.3 c 0.1,1.4 0.6,2.5 1.6,3.2 1.1,0.7 2.5,1.1 4.3,1.1 1.3,0 2.4,-0.3 3.3,-0.8 0.9,-0.5 1.3,-1.2 1.3,-2.1 0,-1.3 -1.5,-2.3 -4.5,-2.9 -1.3,-0.2 -2.3,-0.4 -2.9,-0.6 -3.8,-0.9 -6.4,-2.1 -7.7,-3.3 -1.4,-1.3 -2.2,-3 -2.2,-5.2 0,-2.7 1,-5 3.1,-6.8 2.2,-1.7 5,-2.5 8.4,-2.5 3.7,0 6.7,0.8 9,2.5 2.099996,1.8 3.199996,4.1 3.299996,7 h -4.599996 c -1.4,0 -2.4,-0.6 -3.1,-1.8 -0.3,-0.3 -0.6,-0.6 -0.9,-0.9 -0.9,-0.6 -2,-1 -3.6,-1 -1.4,0 -2.5,0.2 -3.2,0.6 -0.6,0.4 -1,1.1 -1,1.9 0,1.2 1.9,2.1 5.6,2.9 0.4,0.1 0.8,0.2 1.1,0.3 0.3,0.1 0.6,0.1 0.9,0.1 3.7,0.9 6.2,2 7.699996,3.2 1.4,1.3 2,3 2,5.2 0,3.2 -1.2,5.6 -3.499996,7.3 -2.2,1.6 -5.4,2.4 -9.7,2.4 -4.1,0 -7.2,-0.8 -9.2,-2.5 -2.1,-1.6 -3.1,-4.1 -3.1,-7.2 v -0.1 z"
   id="path64" />
	<path
   style="fill:#1d333f"
   d="m 114.03482,45.784672 h 11 c -0.1,-1.9 -0.6,-3.4 -1.5,-4.3 -0.9,-1 -2.3,-1.5 -4,-1.5 -1.6,0 -2.9,0.5 -3.9,1.5 -1,1 -1.5,2.4 -1.6,4.3 m 12.9,8.4 h 5.4 c -0.8,3 -2.3,5.3 -4.5,6.9 -2.2,1.7 -5,2.5 -8.4,2.5 -4.1,0 -7.3,-1.3 -9.6,-4 -2.3,-2.6 -3.5,-6.3 -3.5,-11.1 0,-4.6 1.1,-8.2 3.3,-10.8 2.3,-2.7 5.5,-4 9.6,-4 4.3,0 7.7,1.3 10,3.9 2.3,2.7 3.5,6.4 3.5,11.1 0,0.3 0,0.5 0,0.8 0,0.2 0,0.4 0,0.4 0,0.4 0,0.6 -0.1,0.8 h -18.6 c 0.1,2.2 0.6,3.9 1.6,5 0.9,1.2 2.3,1.7 4.2,1.7 1.2,0 2.3,-0.2 3.1,-0.8 0.2,-0.1 0.4,-0.2 0.6,-0.4 0.2,-0.2 0.4,-0.4 0.6,-0.6 0.1,-0.2 0.3,-0.5 0.8,-0.9 0.5,-0.3 1.2,-0.5 2,-0.5 z"
   id="path66" />
	<path
   style="fill:#1d333f"
   d="m 136.13482,53.584672 h 7.3 c 0.1,1.4 0.6,2.5 1.6,3.2 1.1,0.7 2.5,1.1 4.3,1.1 1.3,0 2.4,-0.3 3.3,-0.8 0.9,-0.5 1.3,-1.2 1.3,-2.1 0,-1.3 -1.5,-2.3 -4.5,-2.9 -1.3,-0.2 -2.3,-0.4 -2.9,-0.6 -3.8,-0.9 -6.4,-2.1 -7.7,-3.3 -1.4,-1.3 -2.2,-3 -2.2,-5.2 0,-2.7 1,-5 3.1,-6.8 2.2,-1.7 5,-2.5 8.4,-2.5 3.7,0 6.7,0.8 9,2.5 2.1,1.8 3.2,4.1 3.3,7 h -4.4 c -1.4,0 -2.4,-0.6 -3.1,-1.8 -0.3,-0.3 -0.6,-0.6 -0.9,-0.9 -0.9,-0.6 -2,-1 -3.6,-1 -1.4,0 -2.5,0.2 -3.2,0.6 -0.6,0.4 -1,1.1 -1,1.9 0,1.2 1.9,2.1 5.6,2.9 0.4,0.1 0.8,0.2 1.1,0.3 0.3,0.1 0.6,0.1 0.9,0.1 3.7,0.9 6.2,2 7.7,3.2 1.4,1.3 2,3 2,5.2 0,3.2 -1.2,5.6 -3.5,7.3 -2.2,1.6 -5.4,2.4 -9.7,2.4 -4.1,0 -7.2,-0.8 -9.2,-2.5 -2.1,-1.6 -3.1,-4.1 -3.1,-7.2 v -0.1 z"
   id="path68" />
	<path
   style="fill:#1d333f"
   d="m 164.93482,53.584672 h 7.3 c 0.1,1.4 0.6,2.5 1.6,3.2 1.1,0.7 2.5,1.1 4.3,1.1 1.3,0 2.4,-0.3 3.3,-0.8 0.9,-0.5 1.3,-1.2 1.3,-2.1 0,-1.3 -1.5,-2.3 -4.5,-2.9 -1.3,-0.2 -2.3,-0.4 -2.9,-0.6 -3.8,-0.9 -6.4,-2.1 -7.7,-3.3 -1.4,-1.3 -2.2,-3 -2.2,-5.2 0,-2.7 1,-5 3.1,-6.8 2.2,-1.7 5,-2.5 8.4,-2.5 3.7,0 6.7,0.8 9,2.5 2.1,1.8 3.2,4.1 3.3,7 h -4.6 c -1.4,0 -2.4,-0.6 -3.1,-1.8 -0.3,-0.3 -0.6,-0.6 -0.9,-0.9 -0.9,-0.6 -2,-1 -3.6,-1 -1.4,0 -2.5,0.2 -3.2,0.6 -0.6,0.4 -1,1.1 -1,1.9 0,1.2 1.9,2.1 5.6,2.9 0.4,0.1 0.8,0.2 1.1,0.3 0.3,0.1 0.6,0.1 0.9,0.1 3.7,0.9 6.2,2 7.7,3.2 1.4,1.3 2,3 2,5.2 0,3.2 -1.2,5.6 -3.5,7.3 -2.2,1.6 -5.4,2.4 -9.7,2.4 -4.1,0 -7.2,-0.8 -9.2,-2.5 -2.1,-1.6 -3.1,-4.1 -3.1,-7.2 v -0.1 z"
   id="path70" />
	<path
   style="fill:#1d333f"
   d="m 194.93482,25.884672 h 3.9 c 1,0 1.9,0.4 2.6,1.1 0.7,0.7 1.1,1.6 1.1,2.6 v 2.3 h -7.6 z m 0,8.4 h 3.9 c 1,0 1.9,0.4 2.6,1.1 0.7,0.7 1.1,1.6 1.1,2.6 v 25.1 h -7.6 z"
   id="path72" />
	<path
   style="fill:#1d333f"
   d="m 214.33482,41.484672 c -1.5,1.7 -2.2,4.1 -2,7.4 0.1,3.3 0.8,5.6 1.8,6.9 0.4,0.6 1.2,1.1 2.3,1.5 1.1,0.4 2.2,0.4 3.3,0.1 1.1,-0.3 2.1,-1.1 3,-2.4 0.9,-1.3 1.3,-3.4 1.4,-6.3 0,-2.6 -0.4,-4.5 -1.2,-5.8 -0.8,-1.3 -1.8,-2.1 -2.9,-2.5 -1.1,-0.4 -2.2,-0.4 -3.2,-0.1 -1.2,0.3 -2,0.7 -2.5,1.2 m -5.1,19 c -1.5,-1.3 -2.6,-3 -3.2,-5.2 -0.6,-2.2 -1,-4.5 -1,-6.9 0,-1.9 0.3,-3.9 0.8,-5.8 0.5,-1.9 1.4,-3.6 2.5,-4.9 1.9,-2.2 4.3,-3.4 7.2,-3.8 2.9,-0.4 5.6,-0.2 8,0.7 2.7,1.1 4.8,3 6.1,5.6 1.2,2.4 1.8,5.1 1.8,8.3 0,2.3 -0.3,4.3 -0.8,5.9 -0.5,1.7 -1.2,3.1 -1.9,4.2 -1.7,2.4 -3.9,3.8 -6.6,4.4 -2.4,0.6 -4.8,0.7 -7.2,0.2 -2.4,-0.5 -4.3,-1.4 -5.7,-2.7 z"
   id="path74" />
	<path
   style="fill:#1d333f"
   d="m 260.43482,63.084672 h -3.8 c -1.1,0 -2,-0.3 -2.7,-1 -0.7,-0.7 -1,-1.6 -1,-2.6 v -14.8 c 0,-1.7 -0.5,-3 -1.6,-3.8 -1,-0.8 -2.2,-1.2 -3.5,-1.2 -1.3,0 -2.4,0.4 -3.5,1.2 -1,0.8 -1.5,2 -1.5,3.8 v 18.4 h -7.6 v -16.9 c 0,-4.9 1.3,-8.2 3.8,-9.8 2.6,-1.7 5.4,-2.6 8.5,-2.7 3.2,0 6.1,0.8 8.7,2.5 2.7,1.6 4,5 4,10 v 16.9 z"
   id="path76" />
<g
   id="flowRoot87"
   style="font-style:normal;font-weight:normal;font-size:5px;line-height:125%;font-family:sans-serif;letter-spacing:0px;word-spacing:0px;fill:#000000;fill-opacity:1;stroke:none;stroke-width:1px;stroke-linecap:butt;stroke-linejoin:miter;stroke-opacity:1"
   transform="matrix(1.1657122,0,0,1.1574199,-1.407969,3.3338258)"
   aria-label="17"><path
     id="path52"
     style="font-style:normal;font-variant:normal;font-weight:normal;font-stretch:normal;font-size:64px;font-family:Harabara;-inkscape-font-specification:Harabara;letter-spacing:3.88271403px;fill:#ffffff"
     d="m 15.771484,44.066192 v -29 H 7.6464844 V 8.8161924 q 2.7499996,0 5.6249996,-1.75 3,-1.875 4.125,-6 h 2.5 v 0 q 1.875,0 3.125,1.25 1.375,1.25 1.375,3.125 V 44.066192 Z" /><path
     id="path55"
     style="font-style:normal;font-variant:normal;font-weight:normal;font-stretch:normal;font-size:64px;font-family:Harabara;-inkscape-font-specification:Harabara;letter-spacing:3.88271403px;fill:#ffffff"
     d="m 44.654198,44.066192 h -9.25 q 0.25,-8.75 4.375,-18 3.625,-8.625 11,-17.4999996 h -21.75 v -7.5 h 28.5 q 3.375,0 3.875,2.5 0.5,2.375 -1,4.125 -3.625,4.1249996 -6.5,8.3749996 -2.75,4.125 -4.625,8.625 -4.125,9.375 -4.625,19.375 z" /></g><g
   id="flowRoot49"
   style="font-style:normal;font-weight:normal;font-size:5px;line-height:125%;font-family:sans-serif;letter-spacing:0px;word-spacing:0px;fill:#000000;fill-opacity:1;stroke:none;stroke-width:1px;stroke-linecap:butt;stroke-linejoin:miter;stroke-opacity:1"
   transform="translate(3.3929649,-16.341354)"
   aria-label="25th April 2020 | Wroclaw, Poland"><path
     id="path59"
     style="font-size:11.33333302px"
     d="m 75.334961,95.044271 h 3.901367 v 0.940755 h -5.246094 v -0.940755 q 0.636394,-0.658529 1.732097,-1.7653 1.101237,-1.112304 1.383463,-1.433268 0.536784,-0.60319 0.74707,-1.018229 0.215821,-0.420573 0.215821,-0.824544 0,-0.658529 -0.464844,-1.073568 -0.45931,-0.415039 -1.200846,-0.415039 -0.525716,0 -1.112305,0.182617 -0.581055,0.182617 -1.245117,0.553385 v -1.128906 q 0.67513,-0.271159 1.261719,-0.409505 0.586588,-0.138346 1.073567,-0.138346 1.283854,0 2.047526,0.641927 0.763672,0.641927 0.763672,1.715495 0,0.509114 -0.193685,0.968424 -0.188151,0.453776 -0.691732,1.073568 -0.138346,0.160481 -0.879882,0.929687 -0.741537,0.763672 -2.091797,2.141602 z" /><path
     id="path61"
     style="font-size:11.33333302px"
     d="m 81.599284,87.722982 h 4.388346 v 0.940755 h -3.364584 v 2.025391 q 0.24349,-0.08301 0.48698,-0.121745 0.243489,-0.04427 0.486979,-0.04427 1.383463,0 2.191406,0.758138 0.807943,0.758138 0.807943,2.05306 0,1.333659 -0.830078,2.075195 -0.830079,0.736003 -2.340821,0.736003 -0.520182,0 -1.0625,-0.08854 -0.536783,-0.08854 -1.112304,-0.265625 v -1.123372 q 0.498047,0.271158 1.029297,0.403971 0.53125,0.132812 1.123372,0.132812 0.957357,0 1.516276,-0.50358 0.558919,-0.503581 0.558919,-1.366862 0,-0.863281 -0.558919,-1.366862 -0.558919,-0.503581 -1.516276,-0.503581 -0.448242,0 -0.896484,0.09961 -0.442709,0.09961 -0.907552,0.309896 z" /><path
     id="path63"
     style="font-size:11.33333302px"
     d="m 89.667643,88.027344 v 1.759765 h 2.09733 v 0.791341 h -2.09733 v 3.364584 q 0,0.758138 0.204752,0.973958 0.210287,0.21582 0.84668,0.21582 h 1.045898 v 0.852214 h -1.045898 q -1.178711,0 -1.626953,-0.437175 Q 88.64388,95.105143 88.64388,93.943034 V 90.57845 h -0.747071 v -0.791341 h 0.747071 v -1.759765 z" /><path
     id="path65"
     style="font-size:11.33333302px"
     d="m 98.261718,92.244141 v 3.740885 h -1.018229 v -3.707682 q 0,-0.879883 -0.343099,-1.317058 -0.343099,-0.437174 -1.029297,-0.437174 -0.824544,0 -1.300456,0.525716 -0.475911,0.525716 -0.475911,1.433268 v 3.50293 h -1.023763 v -8.610677 h 1.023763 V 90.75 q 0.365234,-0.558919 0.857747,-0.835612 0.498047,-0.276693 1.145508,-0.276693 1.068034,0 1.615885,0.664063 0.547852,0.658528 0.547852,1.942383 z" /><path
     id="path67"
     style="font-size:11.33333302px"
     d="m 106.71745,88.824219 -1.51628,4.111653 h 3.03809 z m -0.63086,-1.101237 h 1.26725 l 3.14876,8.262044 h -1.16211 l -0.7526,-2.119466 h -3.72428 l -0.75261,2.119466 h -1.17871 z" /><path
     id="path69"
     style="font-size:11.33333302px"
     d="m 112.6442,95.055338 v 3.28711 h -1.02376 v -8.555339 h 1.02376 v 0.940756 q 0.32097,-0.553386 0.80795,-0.819011 0.49251,-0.271159 1.17317,-0.271159 1.12891,0 1.83171,0.896485 0.70833,0.896484 0.70833,2.357421 0,1.460938 -0.70833,2.357422 -0.7028,0.896485 -1.83171,0.896485 -0.68066,0 -1.17317,-0.265625 -0.48698,-0.271159 -0.80795,-0.824545 z m 3.4642,-2.163737 q 0,-1.123372 -0.46485,-1.759765 -0.45931,-0.641927 -1.26725,-0.641927 -0.80794,0 -1.27279,0.641927 -0.45931,0.636393 -0.45931,1.759765 0,1.123373 0.45931,1.7653 0.46485,0.636393 1.27279,0.636393 0.80794,0 1.26725,-0.636393 0.46485,-0.641927 0.46485,-1.7653 z" /><path
     id="path71"
     style="font-size:11.33333302px"
     d="m 122.44466,90.738932 q -0.17155,-0.09961 -0.3763,-0.14388 -0.19922,-0.0498 -0.44271,-0.0498 -0.86328,0 -1.32812,0.564453 -0.45931,0.55892 -0.45931,1.610352 v 3.264974 h -1.02377 v -6.197917 h 1.02377 V 90.75 q 0.32096,-0.564453 0.83561,-0.835612 0.51465,-0.276693 1.25065,-0.276693 0.10514,0 0.23242,0.0166 0.12728,0.01107 0.28223,0.03874 z" /><path
     id="path73"
     style="font-size:11.33333302px"
     d="m 123.52376,89.787109 h 1.01823 v 6.197917 h -1.01823 z m 0,-2.41276 h 1.01823 v 1.289388 h -1.01823 z" /><path
     id="path75"
     style="font-size:11.33333302px"
     d="m 126.66699,87.374349 h 1.01823 v 8.610677 h -1.01823 z" /><path
     id="path77"
     style="font-size:11.33333302px"
     d="m 134.52506,95.044271 h 3.90137 v 0.940755 h -5.24609 v -0.940755 q 0.63639,-0.658529 1.73209,-1.7653 1.10124,-1.112304 1.38347,-1.433268 0.53678,-0.60319 0.74707,-1.018229 0.21582,-0.420573 0.21582,-0.824544 0,-0.658529 -0.46485,-1.073568 -0.45931,-0.415039 -1.20084,-0.415039 -0.52572,0 -1.11231,0.182617 -0.58105,0.182617 -1.24512,0.553385 v -1.128906 q 0.67513,-0.271159 1.26172,-0.409505 0.58659,-0.138346 1.07357,-0.138346 1.28386,0 2.04753,0.641927 0.76367,0.641927 0.76367,1.715495 0,0.509114 -0.19369,0.968424 -0.18815,0.453776 -0.69173,1.073568 -0.13834,0.160481 -0.87988,0.929687 -0.74154,0.763672 -2.0918,2.141602 z" /><path
     id="path79"
     style="font-size:11.33333302px"
     d="m 143.16895,88.458984 q -0.86329,0 -1.30046,0.852214 -0.43164,0.84668 -0.43164,2.551107 0,1.698893 0.43164,2.551106 0.43717,0.84668 1.30046,0.84668 0.86881,0 1.30045,-0.84668 0.43718,-0.852213 0.43718,-2.551106 0,-1.704427 -0.43718,-2.551107 -0.43164,-0.852214 -1.30045,-0.852214 z m 0,-0.885416 q 1.38899,0 2.11946,1.101237 0.736,1.095703 0.736,3.1875 0,2.086263 -0.736,3.187499 -0.73047,1.095704 -2.11946,1.095704 -1.389,0 -2.125,-1.095704 -0.73047,-1.101236 -0.73047,-3.187499 0,-2.091797 0.73047,-3.1875 0.736,-1.101237 2.125,-1.101237 z" /><path
     id="path81"
     style="font-size:11.33333302px"
     d="m 148.95735,95.044271 h 3.90137 v 0.940755 h -5.24609 v -0.940755 q 0.63639,-0.658529 1.73209,-1.7653 1.10124,-1.112304 1.38346,-1.433268 0.53679,-0.60319 0.74708,-1.018229 0.21582,-0.420573 0.21582,-0.824544 0,-0.658529 -0.46485,-1.073568 -0.45931,-0.415039 -1.20084,-0.415039 -0.52572,0 -1.11231,0.182617 -0.58105,0.182617 -1.24512,0.553385 v -1.128906 q 0.67513,-0.271159 1.26172,-0.409505 0.58659,-0.138346 1.07357,-0.138346 1.28385,0 2.04753,0.641927 0.76367,0.641927 0.76367,1.715495 0,0.509114 -0.19369,0.968424 -0.18815,0.453776 -0.69173,1.073568 -0.13835,0.160481 -0.87988,0.929687 -0.74154,0.763672 -2.0918,2.141602 z" /><path
     id="path83"
     style="font-size:11.33333302px"
     d="m 157.60123,88.458984 q -0.86328,0 -1.30045,0.852214 -0.43164,0.84668 -0.43164,2.551107 0,1.698893 0.43164,2.551106 0.43717,0.84668 1.30045,0.84668 0.86882,0 1.30046,-0.84668 0.43717,-0.852213 0.43717,-2.551106 0,-1.704427 -0.43717,-2.551107 -0.43164,-0.852214 -1.30046,-0.852214 z m 0,-0.885416 q 1.389,0 2.11947,1.101237 0.736,1.095703 0.736,3.1875 0,2.086263 -0.736,3.187499 -0.73047,1.095704 -2.11947,1.095704 -1.38899,0 -2.125,-1.095704 -0.73046,-1.101236 -0.73046,-3.187499 0,-2.091797 0.73046,-3.1875 0.73601,-1.101237 2.125,-1.101237 z" /><path
     id="path85"
     style="font-size:11.33333302px"
     d="m 167.20247,87.324544 v 11.333333 h -0.94075 V 87.324544 Z" /><path
     id="path87"
     style="font-size:11.33333302px"
     d="m 172.63672,87.722982 h 1.1289 l 1.73763,6.983724 1.7321,-6.983724 h 1.25618 l 1.73763,6.983724 1.7321,-6.983724 h 1.13444 l -2.07519,8.262044 h -1.4056 l -1.74317,-7.171875 -1.75976,7.171875 h -1.4056 z" /><path
     id="path89"
     style="font-size:11.33333302px"
     d="m 187.61133,90.738932 q -0.17155,-0.09961 -0.37631,-0.14388 -0.19922,-0.0498 -0.4427,-0.0498 -0.86329,0 -1.32813,0.564453 -0.45931,0.55892 -0.45931,1.610352 v 3.264974 h -1.02376 v -6.197917 h 1.02376 V 90.75 q 0.32096,-0.564453 0.83561,-0.835612 0.51465,-0.276693 1.25065,-0.276693 0.10515,0 0.23243,0.0166 0.12727,0.01107 0.28222,0.03874 z" /><path
     id="path91"
     style="font-size:11.33333302px"
     d="m 190.84863,90.500976 q -0.81902,0 -1.29493,0.641928 -0.47591,0.636393 -0.47591,1.748697 0,1.112305 0.47038,1.754232 0.47591,0.636393 1.30046,0.636393 0.81347,0 1.28938,-0.641927 0.47591,-0.641927 0.47591,-1.748698 0,-1.101237 -0.47591,-1.743164 -0.47591,-0.647461 -1.28938,-0.647461 z m 0,-0.863281 q 1.32812,0 2.08626,0.863281 0.75814,0.863282 0.75814,2.390625 0,1.52181 -0.75814,2.390625 -0.75814,0.863282 -2.08626,0.863282 -1.33366,0 -2.0918,-0.863282 -0.75261,-0.868815 -0.75261,-2.390625 0,-1.527343 0.75261,-2.390625 0.75814,-0.863281 2.0918,-0.863281 z" /><path
     id="path93"
     style="font-size:11.33333302px"
     d="m 199.83561,90.025065 v 0.951823 q -0.43164,-0.237956 -0.86882,-0.354167 -0.43164,-0.121745 -0.87434,-0.121745 -0.99056,0 -1.53842,0.63086 -0.54785,0.625325 -0.54785,1.759765 0,1.13444 0.54785,1.7653 0.54786,0.625325 1.53842,0.625325 0.4427,0 0.87434,-0.116211 0.43718,-0.121744 0.86882,-0.3597 v 0.940755 q -0.42611,0.199219 -0.88542,0.298828 -0.45377,0.09961 -0.96842,0.09961 -1.40007,0 -2.22461,-0.879883 -0.82455,-0.879883 -0.82455,-2.374024 0,-1.516276 0.83008,-2.385091 0.83561,-0.868815 2.28548,-0.868815 0.47038,0 0.91862,0.09961 0.44825,0.09407 0.86882,0.28776 z" /><path
     id="path95"
     style="font-size:11.33333302px"
     d="m 201.61751,87.374349 h 1.01823 v 8.610677 h -1.01823 z" /><path
     id="path97"
     style="font-size:11.33333302px"
     d="m 207.57747,92.869466 q -1.23405,0 -1.70996,0.282227 -0.47591,0.282226 -0.47591,0.96289 0,0.542318 0.35416,0.863281 0.3597,0.31543 0.97396,0.31543 0.84668,0 1.3558,-0.597656 0.51464,-0.60319 0.51464,-1.599284 v -0.226888 z m 2.03092,-0.420573 v 3.536133 h -1.01823 v -0.940755 q -0.34863,0.564453 -0.86881,0.835612 -0.52018,0.265625 -1.27279,0.265625 -0.95182,0 -1.51627,-0.53125 -0.55892,-0.536784 -0.55892,-1.433269 0,-1.045898 0.69726,-1.577148 0.7028,-0.53125 2.0918,-0.53125 h 1.42773 v -0.09961 q 0,-0.7028 -0.46484,-1.084636 -0.45931,-0.38737 -1.29492,-0.38737 -0.53125,0 -1.03483,0.127279 -0.50358,0.127279 -0.96843,0.381836 v -0.940755 q 0.55892,-0.21582 1.08464,-0.320964 0.52571,-0.110677 1.02376,-0.110677 1.34473,0 2.00879,0.697266 0.66406,0.697265 0.66406,2.113932 z" /><path
     id="path99"
     style="font-size:11.33333302px"
     d="m 211.11913,89.787109 h 1.01823 l 1.27279,4.836589 1.26725,-4.836589 h 1.20084 l 1.27279,4.836589 1.26725,-4.836589 h 1.01823 l -1.62142,6.197917 h -1.20084 l -1.33366,-5.080078 -1.33919,5.080078 h -1.20085 z" /><path
     id="path101"
     style="font-size:11.33333302px"
     d="m 221.24609,94.579427 h 1.16765 v 0.951823 l -0.90756,1.770833 h -0.71386 l 0.45377,-1.770833 z" /><path
     id="path103"
     style="font-size:11.33333302px"
     d="m 229.36425,88.641602 v 3.104492 h 1.4056 q 0.78027,0 1.20638,-0.403972 0.42611,-0.403971 0.42611,-1.151041 0,-0.741537 -0.42611,-1.145508 -0.42611,-0.403971 -1.20638,-0.403971 z m -1.11784,-0.91862 h 2.52344 q 1.389,0 2.09733,0.630859 0.71387,0.625326 0.71387,1.83724 0,1.222981 -0.71387,1.848307 -0.70833,0.625325 -2.09733,0.625325 h -1.4056 v 3.320313 h -1.11784 z" /><path
     id="path105"
     style="font-size:11.33333302px"
     d="m 237.04524,90.500976 q -0.81901,0 -1.29492,0.641928 -0.47591,0.636393 -0.47591,1.748697 0,1.112305 0.47038,1.754232 0.47591,0.636393 1.30045,0.636393 0.81348,0 1.28939,-0.641927 0.47591,-0.641927 0.47591,-1.748698 0,-1.101237 -0.47591,-1.743164 -0.47591,-0.647461 -1.28939,-0.647461 z m 0,-0.863281 q 1.32813,0 2.08627,0.863281 0.75813,0.863282 0.75813,2.390625 0,1.52181 -0.75813,2.390625 -0.75814,0.863282 -2.08627,0.863282 -1.33366,0 -2.09179,-0.863282 -0.75261,-0.868815 -0.75261,-2.390625 0,-1.527343 0.75261,-2.390625 0.75813,-0.863281 2.09179,-0.863281 z" /><path
     id="path107"
     style="font-size:11.33333302px"
     d="m 241.57194,87.374349 h 1.01823 v 8.610677 h -1.01823 z" /><path
     id="path109"
     style="font-size:11.33333302px"
     d="m 247.53189,92.869466 q -1.23405,0 -1.70996,0.282227 -0.47591,0.282226 -0.47591,0.96289 0,0.542318 0.35417,0.863281 0.3597,0.31543 0.97395,0.31543 0.84668,0 1.3558,-0.597656 0.51465,-0.60319 0.51465,-1.599284 v -0.226888 z m 2.03093,-0.420573 v 3.536133 h -1.01823 v -0.940755 q -0.34864,0.564453 -0.86882,0.835612 -0.52018,0.265625 -1.27279,0.265625 -0.95182,0 -1.51627,-0.53125 -0.55892,-0.536784 -0.55892,-1.433269 0,-1.045898 0.69726,-1.577148 0.7028,-0.53125 2.0918,-0.53125 h 1.42774 v -0.09961 q 0,-0.7028 -0.46485,-1.084636 -0.45931,-0.38737 -1.29492,-0.38737 -0.53125,0 -1.03483,0.127279 -0.50358,0.127279 -0.96842,0.381836 v -0.940755 q 0.55891,-0.21582 1.08463,-0.320964 0.52572,-0.110677 1.02376,-0.110677 1.34473,0 2.00879,0.697266 0.66407,0.697265 0.66407,2.113932 z" /><path
     id="path111"
     style="font-size:11.33333302px"
     d="m 256.81771,92.244141 v 3.740885 h -1.01823 v -3.707682 q 0,-0.879883 -0.3431,-1.317058 -0.3431,-0.437174 -1.0293,-0.437174 -0.82454,0 -1.30045,0.525716 -0.47591,0.525716 -0.47591,1.433268 v 3.50293 h -1.02377 v -6.197917 h 1.02377 V 90.75 q 0.36523,-0.558919 0.85774,-0.835612 0.49805,-0.276693 1.14551,-0.276693 1.06804,0 1.61589,0.664063 0.54785,0.658528 0.54785,1.942383 z" /><path
     id="path113"
     style="font-size:11.33333302px"
     d="m 262.93814,90.727865 v -3.353516 h 1.01823 v 8.610677 h -1.01823 v -0.929688 q -0.32096,0.553386 -0.81348,0.824545 -0.48697,0.265625 -1.17317,0.265625 -1.12338,0 -1.83171,-0.896485 -0.7028,-0.896484 -0.7028,-2.357422 0,-1.460937 0.7028,-2.357421 0.70833,-0.896485 1.83171,-0.896485 0.6862,0 1.17317,0.271159 0.49252,0.265625 0.81348,0.819011 z m -3.46973,2.163736 q 0,1.123373 0.45931,1.7653 0.46485,0.636393 1.27279,0.636393 0.80794,0 1.27279,-0.636393 0.46484,-0.641927 0.46484,-1.7653 0,-1.123372 -0.46484,-1.759765 -0.46485,-0.641927 -1.27279,-0.641927 -0.80794,0 -1.27279,0.641927 -0.45931,0.636393 -0.45931,1.759765 z" /></g></g>
</svg>