<?xml version="1.0" encoding="UTF-8" standalone="no"?>
<svg
   xmlns:dc="http://purl.org/dc/elements/1.1/"
   xmlns:cc="http://creativecommons.org/ns#"
   xmlns:rdf="http://www.w3.org/1999/02/22-rdf-syntax-ns#"
   xmlns:svg="http://www.w3.org/2000/svg"
   xmlns="http://www.w3.org/2000/svg"
   xml:space="preserve"
   enable-background="new 0 0 1674.168 1027.062"
   viewBox="0 0 1229.9869 346.59857"
   height="346.59857"
   width="1229.9869"
   y="0px"
   x="0px"
   id="Layer_1"
   version="1.1"><metadata
   id="metadata107"><rdf:RDF><cc:Work
       rdf:about=""><dc:format>image/svg+xml</dc:format><dc:type
         rdf:resource="http://purl.org/dc/dcmitype/StillImage" /><dc:title></dc:title></cc:Work></rdf:RDF></metadata><defs
   id="defs105" /><g
   transform="translate(1.7505961,-723.39839)"
   id="g63"><g
     id="g65"><path
       style="fill:#429096;fill-opacity:1"
       id="path67"
       d="m 277.06259,829.18639 22.788,0 c 0.22,4.472 1.896,7.822 5.026,10.053 3.351,2.236 7.817,3.352 13.404,3.352 4.021,0 7.482,-0.78 10.389,-2.346 2.681,-1.561 4.021,-3.687 4.021,-6.367 0,-4.021 -4.691,-7.037 -14.074,-9.048 -4.021,-0.67 -7.038,-1.341 -9.048,-2.011 -11.844,-2.9 -19.771,-6.367 -23.792,-10.389 -4.472,-4.021 -6.702,-9.383 -6.702,-16.085 0,-8.487 3.236,-15.524 9.718,-21.111 6.702,-5.137 15.415,-7.708 26.138,-7.708 11.614,0 20.887,2.571 27.814,7.708 6.477,5.587 9.938,12.849 10.388,21.781 l -14.409,0 c -4.247,0 -7.488,-1.896 -9.718,-5.696 -0.896,-0.891 -1.791,-1.786 -2.681,-2.681 -2.681,-2.011 -6.367,-3.017 -11.059,-3.017 -4.471,0 -7.822,0.671 -10.053,2.011 -2.01,1.341 -3.016,3.352 -3.016,6.032 0,3.576 5.807,6.592 17.425,9.048 1.341,0.45 2.514,0.785 3.519,1.005 1.005,0.226 1.953,0.335 2.848,0.335 11.394,2.906 19.321,6.258 23.792,10.054 4.241,4.021 6.367,9.383 6.367,16.085 0,9.834 -3.576,17.426 -10.723,22.787 -6.702,4.917 -16.755,7.373 -30.16,7.373 -12.734,0 -22.232,-2.565 -28.484,-7.708 -6.482,-5.137 -9.718,-12.618 -9.718,-22.452 l 0,-1.005 z" /><path
       style="fill:#429096;fill-opacity:1"
       id="path69"
       d="m 430.40759,831.19739 16.755,0 c -2.461,9.383 -7.153,16.535 -14.075,21.446 -6.927,5.143 -15.64,7.708 -26.138,7.708 -12.734,0 -22.678,-4.132 -29.825,-12.399 -7.152,-8.042 -10.724,-19.546 -10.724,-34.516 0,-14.295 3.461,-25.469 10.389,-33.511 7.147,-8.263 17.09,-12.399 29.824,-12.399 13.404,0 23.793,4.021 31.165,12.063 7.147,8.269 10.724,19.771 10.724,34.517 0,0.896 0,1.676 0,2.346 0,0.67 0,1.12 0,1.341 0,1.12 -0.115,1.9 -0.335,2.346 l -57.974,0 c 0.22,6.927 1.895,12.063 5.026,15.415 2.901,3.576 7.257,5.361 13.069,5.361 3.796,0 7.037,-0.78 9.718,-2.346 0.67,-0.22 1.283,-0.612 1.843,-1.173 0.555,-0.555 1.173,-1.173 1.843,-1.843 0.22,-0.671 1.058,-1.561 2.513,-2.682 1.453,-1.115 3.521,-1.674 6.202,-1.674 z m -40.213,-26.139 34.181,0 c -0.45,-6.032 -2.011,-10.498 -4.691,-13.404 -2.906,-3.126 -7.037,-4.691 -12.399,-4.691 -4.917,0 -8.938,1.565 -12.064,4.691 -3.132,3.13 -4.807,7.597 -5.027,13.404 z" /><path
       style="fill:#429096;fill-opacity:1"
       id="path71"
       d="m 458.75759,829.18639 22.788,0 c 0.22,4.472 1.896,7.822 5.026,10.053 3.351,2.236 7.817,3.352 13.404,3.352 4.021,0 7.482,-0.78 10.389,-2.346 2.681,-1.561 4.021,-3.687 4.021,-6.367 0,-4.021 -4.691,-7.037 -14.074,-9.048 -4.021,-0.67 -7.038,-1.341 -9.048,-2.011 -11.844,-2.9 -19.771,-6.367 -23.792,-10.389 -4.472,-4.021 -6.702,-9.383 -6.702,-16.085 0,-8.487 3.236,-15.524 9.718,-21.111 6.702,-5.137 15.415,-7.708 26.138,-7.708 11.614,0 20.887,2.571 27.814,7.708 6.477,5.587 9.938,12.849 10.388,21.781 l -14.41,0 c -4.247,0 -7.488,-1.896 -9.718,-5.696 -0.896,-0.891 -1.791,-1.786 -2.681,-2.681 -2.681,-2.011 -6.367,-3.017 -11.059,-3.017 -4.471,0 -7.822,0.671 -10.053,2.011 -2.01,1.341 -3.016,3.352 -3.016,6.032 0,3.576 5.807,6.592 17.425,9.048 1.341,0.45 2.514,0.785 3.519,1.005 1.005,0.226 1.953,0.335 2.848,0.335 11.394,2.906 19.321,6.258 23.792,10.054 4.241,4.021 6.367,9.383 6.367,16.085 0,9.834 -3.576,17.426 -10.723,22.787 -6.702,4.917 -16.755,7.373 -30.16,7.373 -12.734,0 -22.232,-2.565 -28.484,-7.708 -6.482,-5.137 -9.718,-12.618 -9.718,-22.452 l 0,-1.005 z" /><path
       style="fill:#429096;fill-opacity:1"
       id="path73"
       d="m 542.40059,895.87239 0,-19.437 4.356,0 c 2.011,0 3.351,-0.561 4.021,-1.676 0.89,-0.67 1.34,-2.126 1.34,-4.356 l 0,-11.729 0,-67.356 0,-21.782 12.064,0 c 3.126,0 5.807,1.12 8.042,3.351 2.23002,2.236 3.35102,4.917 3.35102,8.043 l 0,77.745 0,15.415 c 0,7.592 -2.23602,13.179 -6.70202,16.755 -4.472,3.352 -11.844,5.027 -22.117,5.027 l -4.355,0 z m 9.718,-152.474 12.064,0 c 3.126,0 5.807,1.121 8.042,3.352 2.23002,2.235 3.35102,4.916 3.35102,8.042 l 0,7.038 -23.45802,0 0,-18.432 z" /><path
       style="fill:#429096;fill-opacity:1"
       id="path75"
       d="m 646.14963,854.98939 c -4.691,2.461 -9.666,3.964 -14.912,4.524 -5.252,0.555 -9.886,0.838 -13.907,0.838 -8.042,0 -15.08,-2.179 -21.112,-6.535 -6.032,-4.356 -9.048,-11.561 -9.048,-21.614 0,-9.383 2.733,-16.085 8.21,-20.106 5.472,-4.021 12.451,-6.702 20.944,-8.043 1.115,0 2.456,-0.167 4.021,-0.502 1.561,-0.335 3.351,-0.613 5.362,-0.838 9.828,-1.341 14.745,-4.241 14.745,-8.713 0,-3.352 -1.733,-5.529 -5.194,-6.534 -3.466,-1.006 -6.649,-1.509 -9.55,-1.509 -3.131,0 -5.922,0.45 -8.378,1.341 -2.461,0.896 -4.246,2.571 -5.362,5.026 l -22.452,0 c 0.89,-6.922 4.021,-12.619 9.383,-17.09 6.032,-5.137 14.629,-7.708 25.803,-7.708 12.509,0 21.892,2.126 28.149,6.367 6.477,4.472 9.718,10.724 9.718,18.766 l 0,30.495 c 0,8.938 -1.623,15.918 -4.859,20.944 -3.24,5.026 -7.094,8.66 -11.561,10.891 z m -5.361,-41.218 c -3.131,1.565 -7.487,3.016 -13.069,4.356 l -7.708,1.676 c -4.021,1.12 -6.927,2.57 -8.713,4.356 -1.565,2.461 -2.346,4.916 -2.346,7.372 0,3.351 1.005,6.032 3.016,8.042 2.011,1.791 4.912,2.682 8.713,2.682 6.252,0 11.168,-1.786 14.745,-5.362 3.571,-3.57 5.361,-8.487 5.361,-14.744 l 0,-8.378 z" /><path
       style="fill:#323f49;fill-opacity:1"
       id="path79"
       d="m 261.01623,876.16171 12.064,0 c 3.126,0 5.807,1.063 8.042,3.184 2.23,2.126 3.351,4.749 3.351,7.875 l 0,104.21896 -23.458,0 0,-115.27796 z" /><path
       style="fill:#323f49;fill-opacity:1"
       id="path81"
       d="m 296.834,876.16171 12.064,0 c 3.125,0 5.806,1.121 8.042,3.352 2.23,2.235 3.351,4.916 3.351,8.042 l 0,7.038 -23.457,0 0,-18.432 z m 0,26.138 12.064,0 c 3.125,0 5.806,1.12 8.042,3.351 2.23,2.236 3.351,4.917 3.351,8.043 l 0,77.74496 -23.457,0 0,-89.13896 z" /><path
       style="fill:#323f49;fill-opacity:1"
       id="path83"
       d="m 409.87123,991.43867 -11.729,0 c -3.352,0 -6.09,-1.058 -8.211,-3.184 -2.125,-2.12 -3.183,-4.859 -3.183,-8.21 l 0,-45.57496 c 0,-5.361 -1.624,-9.268 -4.859,-11.729 -3.241,-2.455 -6.87,-3.686 -10.892,-3.686 -4.021,0 -7.597,1.23 -10.723,3.686 -3.132,2.461 -4.691,6.367 -4.691,11.729 l 0,56.96896 -23.458,0 0,-52.27596 c 0,-15.19 3.964,-25.354 11.896,-30.495 7.927,-5.137 16.697,-7.928 26.306,-8.378 9.828,0 18.876,2.571 27.144,7.708 8.263,5.142 12.399,15.529 12.399,31.165 l 0,52.27596 z" /><path
       style="fill:#323f49;fill-opacity:1"
       id="path85"
       d="m 499.88123,902.29971 0,52.276 c 0,15.865 -4.137,26.25396 -12.399,31.16496 -8.268,4.917 -17.315,7.373 -27.144,7.373 -9.608,-0.45 -18.379,-3.126 -26.306,-8.043 -7.933,-4.911 -11.896,-15.07996 -11.896,-30.49496 l 0,-52.276 23.458,0 0,56.969 c 0,5.361 1.56,9.272 4.691,11.729 3.126,2.461 6.702,3.686 10.723,3.686 4.021,0 7.65,-1.225 10.892,-3.686 3.235,-2.456 4.859,-6.367 4.859,-11.729 l 0,-45.575 c 0,-3.126 1.058,-5.807 3.183,-8.043 2.121,-2.23 4.859,-3.351 8.211,-3.351 l 11.728,0 z" /><path
       style="fill:#323f49;fill-opacity:1"
       id="path87"
       d="m 536.72934,902.29971 0,32.841 28.483,-32.841 28.14899,0 -31.83499,34.181 32.16999,54.95796 -28.14899,0 -16.42,-30.15996 c -3.351,-6.031 -6.257,-8.597 -8.713,-7.707 -2.461,0.896 -3.686,2.235 -3.686,4.021 l 0,12.398 0,21.44696 -23.458,0 0,-115.27596 12.063,0 c 3.126,0 5.808,1.121 8.043,3.352 2.23,2.235 3.352,4.807 3.352,7.707 l 0,15.079 z" /><path
       style="fill:#323f49;fill-opacity:1"
       id="path89"
       d="m 599.78593,961.94971 22.787,0 c 0.221,4.472 1.896,7.822 5.027,10.053 3.351,2.236 7.817,3.352 13.404,3.352 4.021,0 7.482,-0.78 10.388,-2.346 2.681,-1.561 4.021,-3.687 4.021,-6.367 0,-4.021 -4.691,-7.037 -14.074,-9.048 -4.021,-0.67 -7.037,-1.341 -9.048,-2.011 -11.845,-2.9 -19.771,-6.367 -23.793,-10.389 -4.472,-4.021 -6.702,-9.383 -6.702,-16.085 0,-8.487 3.236,-15.524 9.718,-21.111 6.702,-5.137 15.415,-7.708 26.139,-7.708 11.613,0 20.887,2.571 27.814,7.708 6.477,5.587 9.938,12.849 10.388,21.781 l -14.409,0 c -4.247,0 -7.487,-1.896 -9.719,-5.696 -0.895,-0.891 -1.79,-1.786 -2.681,-2.681 -2.681,-2.011 -6.367,-3.017 -11.059,-3.017 -4.472,0 -7.822,0.671 -10.053,2.011 -2.011,1.341 -3.017,3.352 -3.017,6.032 0,3.576 5.808,6.592 17.426,9.048 1.341,0.45 2.514,0.785 3.519,1.005 1.006,0.226 1.953,0.335 2.849,0.335 11.394,2.906 19.321,6.258 23.793,10.054 4.241,4.021 6.367,9.383 6.367,16.085 0,9.834 -3.576,17.42596 -10.724,22.78696 -6.702,4.917 -16.756,7.373 -30.16,7.373 -12.733,0 -22.232,-2.565 -28.484,-7.708 -6.481,-5.137 -9.718,-12.61796 -9.718,-22.45196 l 0,-1.005 z" /><path
       style="fill:#323f49;fill-opacity:1"
       id="path91"
       d="m 703.31903,983.39567 c -4.691,-4.02096 -8.043,-9.43496 -10.054,-16.25196 -2.01,-6.812 -3.016,-13.907 -3.016,-21.279 0,-6.032 0.838,-12.064 2.514,-18.097 1.675,-6.031 4.299,-11.059 7.875,-15.079 5.807,-6.702 13.289,-10.666 22.452,-11.896 9.157,-1.226 17.426,-0.503 24.798,2.178 8.487,3.352 14.745,9.163 18.766,17.426 3.797,7.372 5.697,15.976 5.697,25.804 0,7.152 -0.785,13.294 -2.346,18.431 -1.565,5.142 -3.576,9.498 -6.032,13.069 -5.361,7.37196 -12.179,11.95396 -20.441,13.73896 -7.372,2.011 -14.803,2.178 -22.284,0.503 -7.488,-1.677 -13.462,-4.525 -17.929,-8.547 z m 16.085,-58.97796 c -4.691,5.142 -6.817,12.792 -6.367,22.955 0.445,10.168 2.346,17.258 5.697,21.279 1.34,1.79 3.687,3.299 7.037,4.523 3.352,1.23 6.755,1.341 10.221,0.335 3.461,-1.005 6.535,-3.519 9.216,-7.539 2.681,-4.021 4.131,-10.499 4.356,-19.437 0,-8.043 -1.288,-14.074 -3.854,-18.096 -2.57,-4.021 -5.528,-6.587 -8.88,-7.708 -3.351,-1.115 -6.702,-1.173 -10.054,-0.167 -3.35,1.006 -5.811,2.294 -7.372,3.855 z" /><path
       style="fill:#323f49;fill-opacity:1"
       id="path93"
       d="m 873.34806,991.43867 -23.457,0 -13.739,-63.67096 -13.739,63.67096 -23.45803,0 -24.463,-89.13896 22.787,0 14.075,61.66 12.73303,-61.66 23.793,0 12.063,61.66 12.399,-53.617 c 1.341,-5.362 4.911,-8.043 10.724,-8.043 l 14.744,0 -24.462,89.13896 z" /><path
       style="fill:#323f49;fill-opacity:1"
       id="path95"
       d="m 962.63936,987.75267 c -4.692,2.461 -9.666,3.964 -14.913,4.524 -5.251,0.555 -9.886,0.838 -13.906,0.838 -8.043,0 -15.08,-2.179 -21.112,-6.535 -6.032,-4.356 -9.048,-11.56096 -9.048,-21.61396 0,-9.383 2.733,-16.085 8.21,-20.106 5.472,-4.021 12.451,-6.702 20.944,-8.043 1.115,0 2.456,-0.167 4.021,-0.502 1.561,-0.335 3.351,-0.613 5.361,-0.838 9.828,-1.341 14.745,-4.241 14.745,-8.713 0,-3.352 -1.733,-5.529 -5.194,-6.534 -3.466,-1.006 -6.649,-1.509 -9.551,-1.509 -3.131,0 -5.922,0.45 -8.377,1.341 -2.461,0.896 -4.247,2.571 -5.362,5.026 l -22.452,0 c 0.891,-6.922 4.021,-12.619 9.383,-17.09 6.032,-5.137 14.63,-7.708 25.804,-7.708 12.509,0 21.892,2.126 28.149,6.367 6.477,4.472 9.718,10.724 9.718,18.766 l 0,30.495 c 0,8.938 -1.623,15.918 -4.859,20.944 -3.242,5.02596 -7.096,8.65996 -11.561,10.89096 z m -5.363,-41.21796 c -3.131,1.565 -7.487,3.016 -13.069,4.356 l -7.707,1.676 c -4.021,1.12 -6.928,2.57 -8.713,4.356 -1.565,2.461 -2.346,4.916 -2.346,7.372 0,3.351 1.005,6.032 3.016,8.042 2.011,1.791 4.912,2.682 8.713,2.682 6.252,0 11.169,-1.786 14.745,-5.362 3.57,-3.57 5.361,-8.487 5.361,-14.744 l 0,-8.378 z" /><g
       transform="matrix(1.5410585,0,0,1.5410585,-650.35528,114.9297)"
       id="g3063"><g
         transform="matrix(1.3550558,0,0,1.3550558,-191.22155,31.12899)"
         style="font-style:normal;font-variant:normal;font-weight:bold;font-stretch:normal;font-size:1000px;line-height:125%;font-family:Harabara;-inkscape-font-specification:'Harabara Bold';letter-spacing:0px;word-spacing:0px;fill:#dba100;fill-opacity:1;stroke:none"
         id="text3035"><path
           d="m 502.31192,289.57693 c -27.34372,0 -41.01562,13.67191 -41.01562,41.01563 l 0,66.40625 107.42187,0 0,-107.42188 -66.40625,0"
           id="path3044"
           style="fill:#429096;fill-opacity:1" /></g></g></g></g><g
   id="g3109"
   transform="matrix(0.34688695,0,0,0.34688695,904.74796,-41.317344)"><g
     id="g7"><path
       d="m 669.493,839.33 c 0,0 77.73,-1.643 87.614,54.105 l -36.737,0 c 0,0 -1.406,22.956 -7.073,32.791 l -50.851,-26.23 0,26.23 c 0,0 -46.654,-8.202 -48.063,-50.831 -1.41,-42.625 55.11,-36.065 55.11,-36.065 z"
       id="path9"
       style="fill:#efcc00;stroke:#000000;stroke-width:0.25" /><path
       d="m 741.172,874.399 -29.897,0.093 -3.228,31.152 -50.236,-22.996 -5.897,22.996 c 0,0 -34.352,-40.344 19.78,-59.028 42.065,-14.51 69.478,21.226 69.478,27.783"
       id="path11"
       style="opacity:0.82999998;fill:#fffffe" /></g><g
     id="g13"><path
       d="m 432.88,839.33 c 0,0 -90.176,-1.643 -101.657,54.105 l 42.629,0 c 0,0 1.642,22.956 8.2,32.791 l 59.026,-26.23 0,26.23 c 0,0 54.096,-8.202 55.738,-50.831 C 498.457,832.77 432.88,839.33 432.88,839.33 Z"
       id="path15"
       style="fill:#efcc00;stroke:#000000;stroke-width:0.25" /><path
       d="m 349.708,874.399 34.674,0.093 3.768,31.152 58.296,-22.996 6.802,22.996 c 0,0 39.878,-40.344 -22.953,-59.028 -48.789,-14.51 -80.587,21.226 -80.587,27.783"
       id="path17"
       style="opacity:0.81000001;fill:#fffffe" /></g><path
     id="path19"
     transform="matrix(2.8827836,0,0,2.8827836,-3803.2249,-1285.1661)"
     d="m 1509.4688,539.21875 c -5.8835,0.0698 -53.4103,2.20272 -67.625,51.96875 -6.4866,22.71269 -7.2995,28.09201 -7.4376,30.5625 -0.05,0.099 -0.054,4.01155 -0.1074,4.11758 -22.2149,16.61491 -30.346,39.77589 -20.5625,70.28074 0,0 9.9332,-29.14832 17.5137,-29.14832 0,0 -9.1161,86.48152 83.4062,84.96875 89.7511,0 85.1876,-84.96875 85.1876,-84.96875 9.001,0 19.8437,30.34375 19.8437,30.34375 17.1536,-46.26847 -16.2386,-63.21311 -23.4375,-75.34375 -0.069,-0.11659 -0.091,-0.17314 -0.1562,-0.28125 0.2809,-1.24688 -1.2207,-7.97806 -8.875,-30.53125 -18.0049,-53.08376 -77.1563,-51.96875 -77.1563,-51.96875 0,0 -0.2015,-0.005 -0.5937,0 z"
     style="fill:#111a1b" /><path
     d="m 763.642,612.945 c 0,0 75.42,-8.84 102.655,84.476 l 0,0 c 0,0 42.013,-76.779 -82.083,-181.573 0,0 -11.373,-251.932 -258.165,-238.991 l 0,493.492 c 0,0 214.23,49.192 237.593,-157.404 z"
     id="path21"
     style="fill:#323f49" /><path
     d="m 360.723,612.945 c 0,0 -63.484,-8.84 -86.438,84.476 l 0,0 c 0,0 -39.352,-93.315 68.865,-171.511 0,0 9.84,-261.994 217.61,-249.054 l 0,493.492 c 0,0.001 -180.36,49.193 -200.037,-157.403 z"
     id="path25"
     style="fill:#323f49" /><path
     d="M 407.429,328.822"
     id="path27"
     style="fill:#232c35" /><path
     d="m 440.296,545.575 c 0,0 200.042,-6.555 237.75,0 0,0 59.03,37.077 59.03,151.846 0,54.751 -37.484,156.406 -187.126,156.406 0,0 -160.482,-7.838 -160.482,-156.406 0,0 -14.757,-89.537 50.828,-151.846 z"
     id="path29"
     style="fill:#e6ebef" /><path
     d="m 440.296,545.575 c 0,0 184.438,-8.606 222.584,-2.917 0,0 72.759,25.488 72.759,125.092 0,31.86 -31.716,127.052 -174.366,127.052 0,0 -173.086,1.896 -173.086,-127.052 10e-4,0 -3.494,-75.994 52.109,-122.175 z"
     id="path31"
     style="fill:#ffffff" /><path
     d="m 500.07,538.518 c 0,0 63.123,-27.795 126.252,0 0,0 -49.445,65.588 -63.129,65.588 -8.016,-10e-4 -43.452,-26.24 -63.123,-65.588 z"
     id="path33"
     style="fill:#a9aeb7" /><path
     d="m 486.821,538.518 c 0,0 63.128,-27.795 126.255,0 0,0 -49.448,65.588 -63.126,65.588 -8.016,-10e-4 -43.449,-26.24 -63.129,-65.588 z"
     id="path35"
     style="fill:#020202" /><path
     d="m 559.095,427.717 c 0,0 -86.207,-40.311 -128.121,-43.207 -41.914,-2.896 -92.885,100.057 -26.388,147.948 55.681,40.112 106.678,11.248 154.228,-4.915 0,0 57.389,29.166 114.721,21.313 79.195,-10.851 104.122,-168.884 12.193,-162.323 l 0,0 c 0.001,0 -49.573,-16.206 -126.633,41.184 z"
     id="path37"
     style="fill:#10191a" /><path
     d="m 546.082,454.001 c 0,0 -107.577,-42.632 -124.23,-45.911 0,0 -37.866,72.143 31.77,101.654 -0.001,0 66.097,22.956 92.46,-55.743 z"
     id="path39"
     style="fill:#ffffff" /><path
     d="m 699.466,406.547 c 0,0 -108.63,39.906 -123.232,48.563 0,0 19.857,79.009 91.436,54.621 -10e-4,0 64.564,-26.922 31.796,-103.184 z"
     id="path41"
     style="fill:#ffffff" /><path
     d="m 430.974,383.072 c 0,0 79.833,20.891 124.61,44.266 0,0 98.999,-42.242 130.145,-42.242 l 0,0 c 0,0 -0.609,-100.404 -136.703,-100.404 0,-0.001 -118.052,8.198 -118.052,98.38 z"
     id="path43"
     style="fill:#5a6464" /><path
     d="m 486.821,526.171 c 0,0 63.128,-27.8 126.255,0 0,0 -49.448,65.585 -63.126,65.585 -8.016,0 -43.449,-26.236 -63.129,-65.585 z"
     id="path45"
     style="fill:#efcc00;stroke:#000000;stroke-width:0.25" /><path
     d="m 520.769,454.961 c 0,15.252 -12.374,27.617 -27.643,27.617 -15.245,0 -27.618,-12.365 -27.618,-27.617 0,-15.245 12.374,-27.623 27.618,-27.623 15.27,0 27.643,12.378 27.643,27.623 z"
     id="path47"
     style="fill:#10191a" /><path
     d="m 659.627,454.961 c 0,15.252 -12.373,27.617 -27.618,27.617 -15.27,0 -27.644,-12.365 -27.644,-27.617 0,-15.245 12.374,-27.623 27.644,-27.623 15.245,0 27.618,12.378 27.618,27.623 z"
     id="path49"
     style="fill:#10191a" /><path
     d="m 520.769,446.131 c 0,5.258 -4.252,9.51 -9.477,9.51 -5.254,0 -9.507,-4.252 -9.507,-9.51 0,-5.25 4.253,-9.502 9.507,-9.502 5.225,0 9.477,4.252 9.477,9.502 z"
     id="path51"
     style="fill:#ffffff" /><path
     d="m 650.098,436.642 c 0,5.242 -4.278,9.489 -9.507,9.489 -5.249,0 -9.504,-4.247 -9.504,-9.489 0,-5.266 4.255,-9.517 9.504,-9.517 5.229,0 9.507,4.251 9.507,9.517 z"
     id="path53"
     style="fill:#ffffff" /><path
     d="m 553.332,532.239 c 0,0 -29.515,-4.915 -44.271,8.201 l 31.155,33.791 13.116,-41.992 z"
     id="path55"
     style="fill:#ffffff" /><path
     d="m 343.15,525.91 c 0,0 21.007,-13.101 29.364,0 8.351,13.11 -96.59,83.973 -98.229,171.511 0,0 -1.921,9.315 -4.397,-15.498 -2.473,-24.814 -16.917,-90.412 73.262,-156.013 z"
     id="path57"
     style="fill:#5a6464" /><path
     d="m 784.214,515.848 c 0,0 -15.447,-3.038 -24.544,10.062 -9.12,13.11 105.25,83.973 107.037,171.511 0,0 2.078,9.315 4.792,-15.498 2.689,-24.814 10.989,-100.475 -87.285,-166.075 z"
     id="path59"
     style="fill:#5a6464" /></g><g
   id="flowRoot94"
   style="font-style:normal;font-weight:normal;font-size:5px;line-height:125%;font-family:sans-serif;letter-spacing:0px;word-spacing:0px;fill:#000000;fill-opacity:1;stroke:none;stroke-width:1px;stroke-linecap:butt;stroke-linejoin:miter;stroke-opacity:1"
   transform="matrix(1.2988732,0,0,1.2915785,-9.915351,84.376549)"
   aria-label="17"><path
     id="path68"
     style="font-style:normal;font-variant:normal;font-weight:normal;font-stretch:normal;font-size:192px;font-family:Harabara;-inkscape-font-specification:Harabara;letter-spacing:6.9486227px;fill:#ffffff"
     d="M 57.550781,125.48569 V 38.485686 h -24.375 v -18.75 q 8.25,0 16.875,-5.25 9,-5.6249995 12.375,-17.9999995 h 7.5 v 0 q 5.625,0 9.375,3.74999997 4.125,3.75000003 4.125,9.37500003 V 125.48569 Z" /><path
     id="path70"
     style="font-style:normal;font-variant:normal;font-weight:normal;font-stretch:normal;font-size:192px;font-family:Harabara;-inkscape-font-specification:Harabara;letter-spacing:6.9486227px;fill:#ffffff"
     d="m 139.4994,125.48569 h -27.75 q 0.75,-26.250004 13.125,-54.000004 10.875,-25.875 33,-52.5 H 92.624405 V -3.5143135 H 178.1244 q 10.125,0 11.625,7.5 1.5,7.1249995 -3,12.3749995 -10.875,12.375 -19.5,25.125 -8.25,12.375 -13.875,25.875 -12.375,28.125 -13.875,58.125004 z" /></g><flowRoot
   style="font-style:normal;font-weight:normal;font-size:5px;line-height:125%;font-family:sans-serif;letter-spacing:0px;word-spacing:0px;fill:#000000;fill-opacity:1;stroke:none;stroke-width:1px;stroke-linecap:butt;stroke-linejoin:miter;stroke-opacity:1"
   id="flowRoot110"
   xml:space="preserve"><flowRegion
     id="flowRegion112"><rect
       y="279.0918"
       x="262.9375"
       height="66.38166"
       width="749.1015"
       id="rect114" /></flowRegion><flowPara
     id="flowPara116" /></flowRoot><g
   id="text120"
   style="font-style:normal;font-weight:normal;font-size:5px;line-height:125%;font-family:sans-serif;letter-spacing:0px;word-spacing:0px;fill:#000000;fill-opacity:1;stroke:none;stroke-width:1px;stroke-linecap:butt;stroke-linejoin:miter;stroke-opacity:1"
   aria-label="25 kwietnia 2020 | Wrocław, Polska"><path
     id="path74"
     style="font-size:40px"
     d="m 268.1394,312.33768 h 13.76954 v 3.32031 h -18.51563 v -3.32031 q 2.24609,-2.32422 6.11328,-6.23047 3.88672,-3.92578 4.88281,-5.0586 1.89454,-2.1289 2.63672,-3.59375 0.76172,-1.48437 0.76172,-2.91015 0,-2.32422 -1.64062,-3.78906 -1.6211,-1.46485 -4.23828,-1.46485 -1.85547,0 -3.92579,0.64453 -2.05078,0.64453 -4.39453,1.95313 v -3.98438 q 2.38282,-0.95703 4.45313,-1.44531 2.07031,-0.48828 3.78906,-0.48828 4.53125,0 7.22656,2.26562 2.69532,2.26563 2.69532,6.05469 0,1.79688 -0.6836,3.41797 -0.66406,1.60156 -2.4414,3.78906 -0.48829,0.56641 -3.10547,3.28125 -2.61719,2.69532 -7.38282,7.5586 z" /><path
     id="path76"
     style="font-size:40px"
     d="m 290.24878,286.49783 h 15.48828 v 3.32032 h -11.875 v 7.14843 q 0.85938,-0.29297 1.71875,-0.42968 0.85938,-0.15625 1.71875,-0.15625 4.88281,0 7.73438,2.67578 2.85156,2.67578 2.85156,7.24609 0,4.70703 -2.92969,7.32422 -2.92969,2.59766 -8.26172,2.59766 -1.83594,0 -3.75,-0.3125 -1.89453,-0.3125 -3.92578,-0.9375 v -3.96485 q 1.75781,0.95703 3.63281,1.42578 1.875,0.46875 3.96485,0.46875 3.3789,0 5.35156,-1.77734 1.97266,-1.77734 1.97266,-4.82422 0,-3.04687 -1.97266,-4.82422 -1.97266,-1.77734 -5.35156,-1.77734 -1.58203,0 -3.16407,0.35156 -1.5625,0.35156 -3.20312,1.09375 z" /><path
     id="path78"
     style="font-size:40px"
     d="m 327.76831,285.26736 h 3.61328 v 17.94922 l 10.72266,-9.43359 h 4.58984 l -11.60156,10.23437 12.08984,11.64063 h -4.6875 L 331.38159,304.9744 v 10.68359 h -3.61328 z" /><path
     id="path80"
     style="font-size:40px"
     d="m 349.01831,293.78299 h 3.59375 l 4.49219,17.07031 4.47265,-17.07031 h 4.23829 l 4.49218,17.07031 4.47266,-17.07031 h 3.59375 l -5.72266,21.875 h -4.23828 l -4.70703,-17.92969 -4.72656,17.92969 h -4.23828 z" /><path
     id="path82"
     style="font-size:40px"
     d="m 383.84253,293.78299 h 3.59375 v 21.875 h -3.59375 z m 0,-8.51563 h 3.59375 v 4.55079 h -3.59375 z" /><path
     id="path84"
     style="font-size:40px"
     d="m 413.64722,303.82205 v 1.75781 h -16.52344 q 0.23437,3.71094 2.22656,5.66407 2.01172,1.93359 5.58594,1.93359 2.07031,0 4.00391,-0.50781 1.95312,-0.50781 3.86718,-1.52344 v 3.39844 q -1.93359,0.82031 -3.96484,1.25 -2.03125,0.42969 -4.12109,0.42969 -5.23438,0 -8.30079,-3.04688 -3.04687,-3.04687 -3.04687,-8.24219 0,-5.37109 2.89062,-8.51562 2.91016,-3.16406 7.83204,-3.16406 4.41406,0 6.97265,2.85156 2.57813,2.83203 2.57813,7.71484 z m -3.59375,-1.05469 q -0.0391,-2.94921 -1.66016,-4.70703 -1.60156,-1.75781 -4.25781,-1.75781 -3.00781,0 -4.82422,1.69922 -1.79688,1.69922 -2.07031,4.78516 z" /><path
     id="path86"
     style="font-size:40px"
     d="m 423.10034,287.57205 v 6.21094 h 7.40235 v 2.79297 h -7.40235 v 11.875 q 0,2.67578 0.72266,3.4375 0.74219,0.76172 2.98828,0.76172 h 3.69141 v 3.00781 h -3.69141 q -4.16016,0 -5.74219,-1.54297 -1.58203,-1.5625 -1.58203,-5.66406 v -11.875 h -2.63672 v -2.79297 h 2.63672 v -6.21094 z" /><path
     id="path88"
     style="font-size:40px"
     d="m 453.43237,302.45486 v 13.20313 h -3.59375 v -13.08594 q 0,-3.10547 -1.21093,-4.64844 -1.21094,-1.54296 -3.63282,-1.54296 -2.91015,0 -4.58984,1.85546 -1.67969,1.85547 -1.67969,5.0586 v 12.36328 h -3.61328 v -21.875 h 3.61328 v 3.39844 q 1.28906,-1.97266 3.02735,-2.94922 1.75781,-0.97656 4.04296,-0.97656 3.76954,0 5.70313,2.34375 1.93359,2.32421 1.93359,6.85546 z" /><path
     id="path90"
     style="font-size:40px"
     d="m 460.6394,293.78299 h 3.59375 v 21.875 h -3.59375 z m 0,-8.51563 h 3.59375 v 4.55079 h -3.59375 z" /><path
     id="path92"
     style="font-size:40px"
     d="m 481.67456,304.6619 q -4.35547,0 -6.03516,0.99609 -1.67968,0.99609 -1.67968,3.39844 0,1.91406 1.25,3.04687 1.26953,1.11328 3.4375,1.11328 2.98828,0 4.78515,-2.10937 1.81641,-2.12891 1.81641,-5.64453 v -0.80078 z m 7.16797,-1.48438 v 12.48047 h -3.59375 v -3.32031 q -1.23047,1.99218 -3.06641,2.94922 -1.83593,0.9375 -4.49218,0.9375 -3.35938,0 -5.35157,-1.875 -1.97265,-1.89454 -1.97265,-5.0586 0,-3.6914 2.46093,-5.5664 2.48047,-1.875 7.38282,-1.875 h 5.03906 v -0.35157 q 0,-2.48047 -1.64063,-3.82812 -1.62109,-1.36719 -4.57031,-1.36719 -1.875,0 -3.65234,0.44922 -1.77735,0.44922 -3.41797,1.34766 v -3.32032 q 1.97266,-0.76172 3.82812,-1.13281 1.85547,-0.39062 3.61329,-0.39062 4.74609,0 7.08984,2.46093 2.34375,2.46094 2.34375,7.46094 z" /><path
     id="path94"
     style="font-size:40px"
     d="m 512.90503,312.33768 h 13.76953 v 3.32031 h -18.51562 v -3.32031 q 2.24609,-2.32422 6.11328,-6.23047 3.88672,-3.92578 4.88281,-5.0586 1.89453,-2.1289 2.63672,-3.59375 0.76172,-1.48437 0.76172,-2.91015 0,-2.32422 -1.64063,-3.78906 -1.62109,-1.46485 -4.23828,-1.46485 -1.85547,0 -3.92578,0.64453 -2.05078,0.64453 -4.39453,1.95313 v -3.98438 q 2.38281,-0.95703 4.45312,-1.44531 2.07032,-0.48828 3.78907,-0.48828 4.53125,0 7.22656,2.26562 2.69531,2.26563 2.69531,6.05469 0,1.79688 -0.68359,3.41797 -0.66407,1.60156 -2.44141,3.78906 -0.48828,0.56641 -3.10547,3.28125 -2.61719,2.69532 -7.38281,7.5586 z" /><path
     id="path96"
     style="font-size:40px"
     d="m 543.41284,289.09549 q -3.04687,0 -4.58984,3.00781 -1.52344,2.98828 -1.52344,9.00391 0,5.99609 1.52344,9.0039 1.54297,2.98829 4.58984,2.98829 3.06641,0 4.58985,-2.98829 1.54296,-3.00781 1.54296,-9.0039 0,-6.01563 -1.54296,-9.00391 -1.52344,-3.00781 -4.58985,-3.00781 z m 0,-3.125 q 4.90235,0 7.48047,3.88672 2.59766,3.86719 2.59766,11.25 0,7.36328 -2.59766,11.25 -2.57812,3.86719 -7.48047,3.86719 -4.90234,0 -7.5,-3.86719 -2.57812,-3.88672 -2.57812,-11.25 0,-7.38281 2.57812,-11.25 2.59766,-3.88672 7.5,-3.88672 z" /><path
     id="path98"
     style="font-size:40px"
     d="m 563.84253,312.33768 h 13.76953 v 3.32031 h -18.51562 v -3.32031 q 2.24609,-2.32422 6.11328,-6.23047 3.88672,-3.92578 4.88281,-5.0586 1.89453,-2.1289 2.63672,-3.59375 0.76172,-1.48437 0.76172,-2.91015 0,-2.32422 -1.64063,-3.78906 -1.62109,-1.46485 -4.23828,-1.46485 -1.85547,0 -3.92578,0.64453 -2.05078,0.64453 -4.39453,1.95313 v -3.98438 q 2.38281,-0.95703 4.45312,-1.44531 2.07032,-0.48828 3.78907,-0.48828 4.53125,0 7.22656,2.26562 2.69531,2.26563 2.69531,6.05469 0,1.79688 -0.68359,3.41797 -0.66407,1.60156 -2.44141,3.78906 -0.48828,0.56641 -3.10547,3.28125 -2.61719,2.69532 -7.38281,7.5586 z" /><path
     id="path100"
     style="font-size:40px"
     d="m 594.35034,289.09549 q -3.04687,0 -4.58984,3.00781 -1.52344,2.98828 -1.52344,9.00391 0,5.99609 1.52344,9.0039 1.54297,2.98829 4.58984,2.98829 3.06641,0 4.58985,-2.98829 1.54296,-3.00781 1.54296,-9.0039 0,-6.01563 -1.54296,-9.00391 -1.52344,-3.00781 -4.58985,-3.00781 z m 0,-3.125 q 4.90235,0 7.48047,3.88672 2.59766,3.86719 2.59766,11.25 0,7.36328 -2.59766,11.25 -2.57812,3.86719 -7.48047,3.86719 -4.90234,0 -7.5,-3.86719 -2.57812,-3.88672 -2.57812,-11.25 0,-7.38281 2.57812,-11.25 2.59766,-3.88672 7.5,-3.88672 z" /><path
     id="path102"
     style="font-size:40px"
     d="m 628.23706,285.09158 v 40 h -3.32031 v -40 z" /><path
     id="path104"
     style="font-size:40px"
     d="m 647.41675,286.49783 h 3.98437 l 6.13282,24.64844 6.11328,-24.64844 h 4.43359 l 6.13281,24.64844 6.11328,-24.64844 h 4.00391 l -7.32422,29.16016 h -4.96094 l -6.15234,-25.3125 -6.21094,25.3125 h -4.96093 z" /><path
     id="path106"
     style="font-size:40px"
     d="m 700.26831,297.14236 q -0.60547,-0.35156 -1.32812,-0.50781 -0.70313,-0.17578 -1.5625,-0.17578 -3.04688,0 -4.6875,1.99219 -1.6211,1.97265 -1.6211,5.68359 v 11.52344 h -3.61328 v -21.875 h 3.61328 v 3.39844 q 1.13281,-1.99219 2.94922,-2.94922 1.81641,-0.97656 4.41406,-0.97656 0.3711,0 0.82032,0.0586 0.44921,0.0391 0.99609,0.13672 z" /><path
     id="path108"
     style="font-size:40px"
     d="m 711.69409,296.30252 q -2.89062,0 -4.57031,2.26563 -1.67969,2.24609 -1.67969,6.17187 0,3.92578 1.66016,6.19141 1.67969,2.24609 4.58984,2.24609 2.8711,0 4.55078,-2.26562 1.67969,-2.26563 1.67969,-6.17188 0,-3.88672 -1.67969,-6.15234 -1.67968,-2.28516 -4.55078,-2.28516 z m 0,-3.04687 q 4.6875,0 7.36328,3.04687 2.67578,3.04688 2.67578,8.4375 0,5.37109 -2.67578,8.4375 -2.67578,3.04688 -7.36328,3.04688 -4.70703,0 -7.38281,-3.04688 -2.65625,-3.06641 -2.65625,-8.4375 0,-5.39062 2.65625,-8.4375 2.67578,-3.04687 7.38281,-3.04687 z" /><path
     id="path110"
     style="font-size:40px"
     d="m 743.41284,294.62283 v 3.35938 q -1.52344,-0.83985 -3.0664,-1.25 -1.52344,-0.42969 -3.08594,-0.42969 -3.4961,0 -5.42969,2.22656 -1.93359,2.20703 -1.93359,6.21094 0,4.00391 1.93359,6.23047 1.93359,2.20703 5.42969,2.20703 1.5625,0 3.08594,-0.41016 1.54296,-0.42968 3.0664,-1.26953 v 3.32032 q -1.5039,0.70312 -3.125,1.05468 -1.60156,0.35157 -3.41797,0.35157 -4.9414,0 -7.85156,-3.10547 -2.91016,-3.10547 -2.91016,-8.37891 0,-5.35156 2.92969,-8.41797 2.94922,-3.0664 8.06641,-3.0664 1.66015,0 3.24219,0.35156 1.58203,0.33203 3.0664,1.01562 z" /><path
     id="path112"
     style="font-size:40px"
     d="m 749.81909,285.26736 h 3.59375 v 11.75782 l 2.44141,-1.75782 1.48437,2.07032 -3.92578,2.7539 v 15.56641 h -3.59375 v -13.00781 l -2.40234,1.71875 -1.44531,-2.07032 3.84765,-2.7539 z" /><path
     id="path114"
     style="font-size:40px"
     d="m 771.04956,304.6619 q -4.35547,0 -6.03516,0.99609 -1.67968,0.99609 -1.67968,3.39844 0,1.91406 1.25,3.04687 1.26953,1.11328 3.4375,1.11328 2.98828,0 4.78515,-2.10937 1.81641,-2.12891 1.81641,-5.64453 v -0.80078 z m 7.16797,-1.48438 v 12.48047 h -3.59375 v -3.32031 q -1.23047,1.99218 -3.06641,2.94922 -1.83593,0.9375 -4.49218,0.9375 -3.35938,0 -5.35157,-1.875 -1.97265,-1.89454 -1.97265,-5.0586 0,-3.6914 2.46093,-5.5664 2.48047,-1.875 7.38282,-1.875 h 5.03906 v -0.35157 q 0,-2.48047 -1.64063,-3.82812 -1.62109,-1.36719 -4.57031,-1.36719 -1.875,0 -3.65234,0.44922 -1.77735,0.44922 -3.41797,1.34766 v -3.32032 q 1.97266,-0.76172 3.82812,-1.13281 1.85547,-0.39062 3.61329,-0.39062 4.74609,0 7.08984,2.46093 2.34375,2.46094 2.34375,7.46094 z" /><path
     id="path116"
     style="font-size:40px"
     d="m 783.54956,293.78299 h 3.59375 l 4.49219,17.07031 4.47265,-17.07031 h 4.23829 l 4.49218,17.07031 4.47266,-17.07031 h 3.59375 l -5.72266,21.875 h -4.23828 l -4.70703,-17.92969 -4.72656,17.92969 h -4.23828 z" /><path
     id="path118"
     style="font-size:40px"
     d="m 819.29175,310.69705 h 4.12109 v 3.35938 l -3.20312,6.25 h -2.51953 l 1.60156,-6.25 z" /><path
     id="path120"
     style="font-size:40px"
     d="m 847.94409,289.74002 v 10.95703 h 4.96094 q 2.75391,0 4.25781,-1.42578 1.50391,-1.42578 1.50391,-4.0625 0,-2.61719 -1.50391,-4.04297 -1.5039,-1.42578 -4.25781,-1.42578 z m -3.94531,-3.24219 h 8.90625 q 4.90234,0 7.40234,2.22657 2.51953,2.20703 2.51953,6.48437 0,4.31641 -2.51953,6.52344 -2.5,2.20703 -7.40234,2.20703 h -4.96094 v 11.71875 h -3.94531 z" /><path
     id="path122"
     style="font-size:40px"
     d="m 875.05347,296.30252 q -2.89063,0 -4.57032,2.26563 -1.67968,2.24609 -1.67968,6.17187 0,3.92578 1.66015,6.19141 1.67969,2.24609 4.58985,2.24609 2.87109,0 4.55078,-2.26562 1.67969,-2.26563 1.67969,-6.17188 0,-3.88672 -1.67969,-6.15234 -1.67969,-2.28516 -4.55078,-2.28516 z m 0,-3.04687 q 4.6875,0 7.36328,3.04687 2.67578,3.04688 2.67578,8.4375 0,5.37109 -2.67578,8.4375 -2.67578,3.04688 -7.36328,3.04688 -4.70703,0 -7.38282,-3.04688 -2.65625,-3.06641 -2.65625,-8.4375 0,-5.39062 2.65625,-8.4375 2.67579,-3.04687 7.38282,-3.04687 z" /><path
     id="path124"
     style="font-size:40px"
     d="m 891.03003,285.26736 h 3.59375 v 30.39063 h -3.59375 z" /><path
     id="path126"
     style="font-size:40px"
     d="m 916.06909,294.42752 v 3.39844 q -1.52344,-0.78125 -3.16406,-1.17188 -1.64063,-0.39062 -3.39844,-0.39062 -2.67578,0 -4.02344,0.82031 -1.32812,0.82031 -1.32812,2.46094 0,1.25 0.95703,1.97265 0.95703,0.70313 3.84766,1.34766 l 1.23047,0.27344 q 3.82812,0.82031 5.42968,2.32422 1.6211,1.48437 1.6211,4.16015 0,3.04688 -2.42188,4.82422 -2.40234,1.77735 -6.62109,1.77735 -1.75781,0 -3.67188,-0.35157 -1.89453,-0.33203 -4.0039,-1.01562 v -3.71094 q 1.99218,1.03516 3.92578,1.5625 1.93359,0.50781 3.82812,0.50781 2.53907,0 3.90625,-0.85937 1.36719,-0.87891 1.36719,-2.46094 0,-1.46484 -0.99609,-2.24609 -0.97657,-0.78125 -4.31641,-1.50391 l -1.25,-0.29297 q -3.33984,-0.70312 -4.82422,-2.14844 -1.48437,-1.46484 -1.48437,-4.0039 0,-3.08594 2.1875,-4.76563 2.1875,-1.67968 6.21093,-1.67968 1.99219,0 3.75,0.29296 1.75782,0.29297 3.24219,0.87891 z" /><path
     id="path128"
     style="font-size:40px"
     d="m 922.84644,285.26736 h 3.61328 v 17.94922 l 10.72265,-9.43359 h 4.58985 l -11.60157,10.23437 12.08985,11.64063 H 937.573 L 926.45972,304.9744 v 10.68359 h -3.61328 z" /><path
     id="path130"
     style="font-size:40px"
     d="m 955.42456,304.6619 q -4.35547,0 -6.03516,0.99609 -1.67968,0.99609 -1.67968,3.39844 0,1.91406 1.25,3.04687 1.26953,1.11328 3.4375,1.11328 2.98828,0 4.78515,-2.10937 1.81641,-2.12891 1.81641,-5.64453 v -0.80078 z m 7.16797,-1.48438 v 12.48047 h -3.59375 v -3.32031 q -1.23047,1.99218 -3.06641,2.94922 -1.83593,0.9375 -4.49218,0.9375 -3.35938,0 -5.35157,-1.875 -1.97265,-1.89454 -1.97265,-5.0586 0,-3.6914 2.46093,-5.5664 2.48047,-1.875 7.38282,-1.875 h 5.03906 v -0.35157 q 0,-2.48047 -1.64063,-3.82812 -1.62109,-1.36719 -4.57031,-1.36719 -1.875,0 -3.65234,0.44922 -1.77735,0.44922 -3.41797,1.34766 v -3.32032 q 1.97266,-0.76172 3.82812,-1.13281 1.85547,-0.39062 3.61329,-0.39062 4.74609,0 7.08984,2.46093 2.34375,2.46094 2.34375,7.46094 z" /></g>

</svg>