<?xml version="1.0" encoding="UTF-8" standalone="no"?>
<svg
   xmlns:dc="http://purl.org/dc/elements/1.1/"
   xmlns:cc="http://creativecommons.org/ns#"
   xmlns:rdf="http://www.w3.org/1999/02/22-rdf-syntax-ns#"
   xmlns:svg="http://www.w3.org/2000/svg"
   xmlns="http://www.w3.org/2000/svg"
   viewBox="0 0 526.98798 241.77733"
   height="241.77733"
   width="526.98798"
   xml:space="preserve"
   id="svg2"
   version="1.1"><metadata
     id="metadata8"><rdf:RDF><cc:Work
         rdf:about=""><dc:format>image/svg+xml</dc:format><dc:type
           rdf:resource="http://purl.org/dc/dcmitype/StillImage" /><dc:title></dc:title></cc:Work></rdf:RDF></metadata><defs
     id="defs6"><clipPath
       id="clipPath18"
       clipPathUnits="userSpaceOnUse"><path
         id="path16"
         d="M 0,181.333 H 395.241 V 0 H 0 Z" /></clipPath><clipPath
       id="clipPath62"
       clipPathUnits="userSpaceOnUse"><path
         id="path60"
         d="m 48.195,120.136 c -1.713,-0.854 -2.89,-2.619 -2.89,-4.662 v 0 c 0,-0.159 0.01,-0.313 0.024,-0.465 v 0 -21.071 -0.545 -3.604 c 3.905,-5.607 9.736,-10.521 16.025,-13.223 v 0 c -0.044,0.045 -0.535,0.543 -0.577,0.591 v 0 c -0.436,0.499 -0.733,1.12 -0.821,1.809 v 0 c -0.017,0.139 -0.019,0.632 -0.009,0.732 v 0 0.235 13.725 0.013 13.963 c -0.01,0.1 -0.017,0.201 -0.017,0.302 v 0 c 0,0.358 0.058,0.699 0.159,1.022 v 0 c -0.205,1.6 -0.322,3.227 -0.322,4.883 v 0 c 0,5.215 1.055,10.175 2.951,14.68 v 0 z" /></clipPath><linearGradient
       id="linearGradient74"
       spreadMethod="pad"
       gradientTransform="matrix(0,43.792538,43.792538,0,54.011749,74.045685)"
       gradientUnits="userSpaceOnUse"
       y2="0"
       x2="1"
       y1="0"
       x1="0"><stop
         id="stop68"
         offset="0"
         style="stop-opacity:1;stop-color:#252227" /><stop
         id="stop70"
         offset="0.23446549"
         style="stop-opacity:1;stop-color:#b5e6ea" /><stop
         id="stop72"
         offset="1"
         style="stop-opacity:1;stop-color:#b5e6ea" /></linearGradient><clipPath
       id="clipPath84"
       clipPathUnits="userSpaceOnUse"><path
         id="path82"
         d="M 45.329,72.321 C 45.315,72.17 45.305,72.015 45.305,71.858 v 0 c 0,-2.043 1.177,-3.809 2.89,-4.664 v 0 l 19.12,-11.039 c 0.679,-0.041 1.359,-0.063 2.047,-0.063 v 0 c 8.124,0 15.626,2.72 21.685,7.312 v 0 L 89.51,62.516 c -0.538,-0.354 -1.182,-0.561 -1.872,-0.561 v 0 c -0.238,0 -0.467,0.033 -0.689,0.08 v 0 c -0.42,0.088 -0.814,0.244 -1.16,0.469 v 0 L 61.822,76.342 C 61.478,76.514 50.528,82.14 45.329,89.789 v 0 z" /></clipPath><linearGradient
       id="linearGradient96"
       spreadMethod="pad"
       gradientTransform="matrix(-40.569969,40.569969,40.569969,40.569969,83.43911,51.289955)"
       gradientUnits="userSpaceOnUse"
       y2="0"
       x2="1"
       y1="0"
       x1="0"><stop
         id="stop90"
         offset="0"
         style="stop-opacity:1;stop-color:#252227" /><stop
         id="stop92"
         offset="0.23446549"
         style="stop-opacity:1;stop-color:#b5e6ea" /><stop
         id="stop94"
         offset="1"
         style="stop-opacity:1;stop-color:#b5e6ea" /></linearGradient><clipPath
       id="clipPath106"
       clipPathUnits="userSpaceOnUse"><path
         id="path104"
         d="m 115.218,78.655 c -0.202,-0.935 -0.783,-1.727 -1.576,-2.204 v 0 C 113.628,76.441 91.047,63.404 91.047,63.404 v 0 C 84.071,59.369 77.486,56.092 69.362,56.092 v 0 c -0.688,0 -1.368,0.022 -2.047,0.063 v 0 l 17.5,-10.104 c 0.814,-0.527 1.782,-0.835 2.825,-0.835 v 0 c 1.057,0 2.04,0.312 2.859,0.854 v 0 l 17.066,9.851 c 0,0 0.296,0.447 0.425,0.658 v 0 c 4.451,6.082 7.423,15.051 7.531,23.203 v 0 c 0,0.006 0,0.008 -0.001,0.008 v 0 c -0.022,0 -0.246,-0.927 -0.302,-1.135" /></clipPath><linearGradient
       id="linearGradient118"
       spreadMethod="pad"
       gradientTransform="matrix(48.206101,0,0,-48.206101,67.314896,62.502964)"
       gradientUnits="userSpaceOnUse"
       y2="0"
       x2="1"
       y1="0"
       x1="0"><stop
         id="stop112"
         offset="0"
         style="stop-opacity:1;stop-color:#8a212f" /><stop
         id="stop114"
         offset="0.23446549"
         style="stop-opacity:1;stop-color:#f03a3e" /><stop
         id="stop116"
         offset="1"
         style="stop-opacity:1;stop-color:#f03a3e" /></linearGradient><clipPath
       id="clipPath128"
       clipPathUnits="userSpaceOnUse"><path
         id="path126"
         d="M 0,181.333 H 395.241 V 0 H 0 Z" /></clipPath><clipPath
       id="clipPath140"
       clipPathUnits="userSpaceOnUse"><path
         id="path138"
         d="m 84.815,141.28 -18.97,-10.953 -3.127,-1.806 c -1.896,-4.505 -2.951,-9.465 -2.951,-14.68 v 0 c 0,-1.656 0.117,-3.283 0.322,-4.883 v 0 c 0.279,0.889 0.91,1.621 1.733,2.031 v 0 l 23.967,13.838 c 0.28,0.182 11.748,6.191 20.255,6.097 v 0 c 0.854,-0.01 1.698,-0.042 2.537,-0.101 v 0 L 90.499,141.26 c -0.819,0.542 -1.802,0.858 -2.859,0.858 v 0 c -1.043,0 -2.011,-0.31 -2.825,-0.838" /></clipPath><linearGradient
       id="linearGradient152"
       spreadMethod="pad"
       gradientTransform="matrix(-43.042324,-23.477768,-23.477768,43.042324,98.526352,137.05756)"
       gradientUnits="userSpaceOnUse"
       y2="0"
       x2="1"
       y1="0"
       x1="0"><stop
         id="stop146"
         offset="0"
         style="stop-opacity:1;stop-color:#252227" /><stop
         id="stop148"
         offset="0.23446549"
         style="stop-opacity:1;stop-color:#b5e6ea" /><stop
         id="stop150"
         offset="1"
         style="stop-opacity:1;stop-color:#b5e6ea" /></linearGradient></defs><g
     transform="matrix(1.3333333,0,0,-1.3333333,0,241.77733)"
     id="g10"><g
       id="g12"><g
         clip-path="url(#clipPath18)"
         id="g14"><g
           transform="translate(159.4048,95.5576)"
           id="g20"><path
             id="path22"
             style="fill:#2e252d;fill-opacity:1;fill-rule:nonzero;stroke:none"
             d="m 0,0 c -8.577,-1.004 -13.649,-3.385 -13.649,-9.332 0,-4.574 2.815,-7.137 8.078,-7.137 2.13,0 4.257,0.442 5.571,1.129 z m -6.072,-19.666 c -8.078,0 -12.837,3.508 -12.837,10.209 0,8.143 8.016,11.273 18.909,12.332 v 2.07 c 0,4.635 -2.504,6.698 -7.2,6.698 -2.944,0 -6.138,-0.877 -8.454,-2.129 l -1.316,3.379 c 2.82,1.445 6.638,2.443 10.269,2.443 7.327,0 11.837,-3.44 11.837,-10.957 v -21.664 c -2.691,-1.444 -6.7,-2.381 -11.208,-2.381" /></g><g
           transform="translate(190.9849,76.5225)"
           id="g24"><path
             id="path26"
             style="fill:#2e252d;fill-opacity:1;fill-rule:nonzero;stroke:none"
             d="m 0,0 v 23.291 c 0,5.068 -2.068,7.58 -7.578,7.58 -2.318,0 -4.195,-0.381 -5.951,-1.131 V 0 h -5.506 v 31.994 c 3.129,1.438 7.262,2.377 11.457,2.377 9.078,0 13.087,-3.941 13.087,-11.08 V 0 Z" /></g><g
           transform="translate(212.1504,76.2061)"
           id="g28"><path
             id="path30"
             style="fill:#2e252d;fill-opacity:1;fill-rule:nonzero;stroke:none"
             d="m 0,0 c -4.82,0 -8.076,2.941 -8.076,8.516 v 22.103 h -3.881 v 3.445 h 3.881 v 7.76 l 5.51,1.696 V 34.064 H 3.32 V 30.619 H -2.566 V 8.516 c 0,-2.94 1.437,-4.696 4.195,-4.696 0.627,0 1.189,0.061 1.691,0.25 V 0.562 C 2.445,0.184 1.314,0 0,0" /></g><g
           transform="translate(258.4824,76.5225)"
           id="g32"><path
             id="path34"
             style="fill:#2e252d;fill-opacity:1;fill-rule:nonzero;stroke:none"
             d="m 0,0 v 23.539 c 0,4.447 -2.004,7.332 -6.949,7.332 -2.756,0 -4.947,-1.254 -6.574,-3.199 V 0 h -5.452 v 24.416 c 0,3.881 -2.127,6.455 -7.134,6.455 -2.569,0 -4.446,-0.318 -6.327,-1.131 V 0 h -5.447 v 31.994 c 3.256,1.438 7.014,2.377 11.584,2.377 5.072,0 7.949,-1.377 10.145,-3.941 2.252,2.441 5.697,3.941 9.705,3.941 8.269,0 11.896,-4.445 11.896,-10.894 L 5.447,0 Z" /></g><g
           transform="translate(271.3926,76.5225)"
           id="g36"><path
             id="path38"
             style="fill:#2e252d;fill-opacity:1;fill-rule:nonzero;stroke:none"
             d="M 0,0 V 11.993 22.41 33.748 H 2.979 5.508 V 25.16 16.992 0 H 2.813 Z" /></g><g
           transform="translate(295.1172,75.8916)"
           id="g40"><path
             id="path42"
             style="fill:#2e252d;fill-opacity:1;fill-rule:nonzero;stroke:none"
             d="m 0,0 c -8.141,0 -13.088,7.205 -13.088,17.535 0,10.328 5.01,17.467 13.088,17.467 3.131,0 5.756,-0.814 7.576,-2.186 L 6.262,29.555 c -1.317,1.002 -3.321,1.695 -5.326,1.695 -5.383,0 -8.387,-5.828 -8.387,-13.592 0,-7.637 3.066,-13.65 8.387,-13.65 2.005,0 3.947,0.627 5.259,1.625 L 7.576,2.193 C 5.756,0.814 3.131,0 0,0" /></g><g
           transform="translate(321.2207,106.5752)"
           id="g44"><path
             id="path46"
             style="fill:#2e252d;fill-opacity:1;fill-rule:nonzero;stroke:none"
             d="m 0,0 c -0.998,0.377 -2.191,0.566 -3.441,0.566 -1.504,0 -3.069,-0.254 -4.262,-0.878 v -29.741 h -5.51 V 1.941 c 2.881,1.438 6.703,2.377 11.522,2.377 1.255,0 2.632,-0.121 2.943,-0.181 z" /></g><g
           transform="translate(336.5977,107.3936)"
           id="g48"><path
             id="path50"
             style="fill:#2e252d;fill-opacity:1;fill-rule:nonzero;stroke:none"
             d="m 0,0 c -5.883,0 -7.83,-6.33 -7.83,-13.844 0,-7.513 1.947,-13.961 7.83,-13.961 5.889,0 7.826,6.448 7.826,13.961 C 7.826,-6.33 5.889,0 0,0 m 0,-31.502 c -9.145,0 -13.338,7.387 -13.338,17.535 C -13.338,-3.889 -9.145,3.5 0,3.5 9.143,3.5 13.338,-3.889 13.338,-13.967 13.338,-24.115 9.143,-31.502 0,-31.502" /></g><g
           transform="translate(87.6109,112.0391)"
           id="g52"><path
             id="path54"
             style="fill:#2e252d;fill-opacity:1;fill-rule:nonzero;stroke:none"
             d="m 0,0 c 1.341,0 2.432,-1.092 2.432,-2.434 0,-1.34 -1.091,-2.431 -2.432,-2.431 -1.342,0 -2.434,1.091 -2.434,2.431 C -2.434,-1.092 -1.342,0 0,0 m 0,-36.742 c -1.342,0 -2.434,1.091 -2.434,2.431 0,1.342 1.092,2.435 2.434,2.435 1.341,0 2.432,-1.093 2.432,-2.435 0,-1.34 -1.091,-2.431 -2.432,-2.431 m 11.002,8.501 c 0.738,0 1.338,-0.598 1.338,-1.337 0,-0.739 -0.6,-1.337 -1.338,-1.337 -0.739,0 -1.339,0.598 -1.339,1.337 0,0.739 0.6,1.337 1.339,1.337 m -22.009,-2.674 c -0.738,0 -1.338,0.598 -1.338,1.337 0,0.739 0.6,1.337 1.338,1.337 0.739,0 1.34,-0.598 1.34,-1.337 0,-0.739 -0.601,-1.337 -1.34,-1.337 m -1.668,11.203 c -0.736,0 -1.337,0.603 -1.337,1.34 0,0.737 0.601,1.338 1.337,1.338 0.74,0 1.342,-0.601 1.342,-1.338 0,-0.737 -0.602,-1.34 -1.342,-1.34 m 1.668,11.211 c -0.738,0 -1.338,0.599 -1.338,1.338 0,0.739 0.6,1.337 1.338,1.337 0.739,0 1.34,-0.598 1.34,-1.337 0,-0.739 -0.601,-1.338 -1.34,-1.338 m 22.009,2.675 c 0.738,0 1.338,-0.598 1.338,-1.337 0,-0.739 -0.6,-1.338 -1.338,-1.338 -0.739,0 -1.339,0.599 -1.339,1.338 0,0.739 0.6,1.337 1.339,1.337 m 1.664,-11.208 c 0.74,0 1.341,-0.601 1.341,-1.338 0,-0.737 -0.601,-1.34 -1.341,-1.34 -0.736,0 -1.338,0.603 -1.338,1.34 0,0.737 0.602,1.338 1.338,1.338 M 0.704,-19.125 h 5.828 3.505 c 0.314,-1.152 1.366,-1.981 2.633,-1.981 1.51,0 2.732,1.177 2.732,2.685 0,1.511 -1.222,2.784 -2.732,2.784 -1.267,0 -2.325,-0.899 -2.635,-2.08 H 5.363 l -4.659,-0.002 v 3.997 h 4.338 c 0,0 0.361,-0.038 0.578,0.135 0.39,0.303 1.385,1.269 1.385,1.269 l 2.738,2.739 c 0.376,-0.201 0.801,-0.323 1.257,-0.323 1.513,0 2.737,1.226 2.737,2.737 0,1.512 -1.224,2.736 -2.737,2.736 -1.51,0 -2.734,-1.224 -2.734,-2.736 0,-0.541 0.162,-1.041 0.431,-1.466 l -3.195,-3.198 c 0,0 -0.396,-0.381 -0.553,-0.444 -0.094,-0.04 -0.33,-0.039 -0.33,-0.039 H 0.704 v 1.709 4.39 c 1.787,0.334 3.145,1.898 3.145,3.779 0,2.126 -1.728,3.851 -3.849,3.851 -2.126,0 -3.854,-1.725 -3.854,-3.851 0,-1.881 1.361,-3.445 3.147,-3.779 v -6.099 h -3.917 c 0,0 -0.236,-0.001 -0.33,0.039 -0.157,0.063 -0.551,0.444 -0.551,0.444 l -3.197,3.198 c 0.27,0.425 0.431,0.925 0.431,1.466 0,1.512 -1.224,2.736 -2.735,2.736 -1.512,0 -2.736,-1.224 -2.736,-2.736 0,-1.511 1.224,-2.737 2.736,-2.737 0.457,0 0.881,0.122 1.258,0.323 l 2.742,-2.739 c 0,0 0.991,-0.966 1.381,-1.269 0.222,-0.173 0.581,-0.135 0.581,-0.135 h 4.337 v -2.799 -1.198 l -4.431,0.002 h -4.902 c -0.31,1.181 -1.364,2.08 -2.63,2.08 -1.515,0 -2.737,-1.273 -2.737,-2.784 0,-1.508 1.222,-2.685 2.737,-2.685 1.262,0 2.315,0.829 2.63,1.981 h 4.942 4.391 v -3.896 h -4.337 c 0,0 -0.359,0.04 -0.581,-0.133 -0.39,-0.306 -1.381,-1.272 -1.381,-1.272 l -2.742,-2.736 c -0.377,0.201 -0.801,0.323 -1.258,0.323 -1.512,0 -2.736,-1.227 -2.736,-2.737 0,-1.513 1.224,-2.737 2.736,-2.737 1.511,0 2.735,1.224 2.735,2.737 0,0.54 -0.161,1.041 -0.431,1.466 l 3.197,3.197 c 0,0 0.394,0.382 0.551,0.445 0.094,0.039 0.33,0.038 0.33,0.038 h 3.917 v -2.799 -3.301 c -1.786,-0.332 -3.147,-1.898 -3.147,-3.781 0,-2.123 1.728,-3.85 3.854,-3.85 2.121,0 3.849,1.727 3.849,3.85 0,1.883 -1.358,3.446 -3.145,3.781 v 6.1 h 3.915 c 0,0 0.236,0.001 0.33,-0.038 0.157,-0.063 0.553,-0.445 0.553,-0.445 l 3.195,-3.197 c -0.269,-0.425 -0.431,-0.926 -0.431,-1.466 0,-1.513 1.224,-2.737 2.734,-2.737 1.513,0 2.737,1.224 2.737,2.737 0,1.51 -1.224,2.737 -2.737,2.737 -0.456,0 -0.881,-0.122 -1.257,-0.323 l -2.738,2.736 c 0,0 -0.995,0.966 -1.385,1.272 -0.217,0.173 -0.578,0.133 -0.578,0.133 H 0.704 v 2.333 z" /></g></g></g><g
       id="g56"><g
         clip-path="url(#clipPath62)"
         id="g58"><g
           id="g64"><g
             id="g66"><path
               id="path76"
               style="fill:url(#linearGradient74);stroke:none"
               d="m 48.195,120.136 c -1.713,-0.854 -2.89,-2.619 -2.89,-4.662 v 0 c 0,-0.159 0.01,-0.313 0.024,-0.465 v 0 -21.071 -0.545 -3.604 c 3.905,-5.607 9.736,-10.521 16.025,-13.223 v 0 c -0.044,0.045 -0.535,0.543 -0.577,0.591 v 0 c -0.436,0.499 -0.733,1.12 -0.821,1.809 v 0 c -0.017,0.139 -0.019,0.632 -0.009,0.732 v 0 0.235 13.725 0.013 13.963 c -0.01,0.1 -0.017,0.201 -0.017,0.302 v 0 c 0,0.358 0.058,0.699 0.159,1.022 v 0 c -0.205,1.6 -0.322,3.227 -0.322,4.883 v 0 c 0,5.215 1.055,10.175 2.951,14.68 v 0 z" /></g></g></g></g><g
       id="g78"><g
         clip-path="url(#clipPath84)"
         id="g80"><g
           id="g86"><g
             id="g88"><path
               id="path98"
               style="fill:url(#linearGradient96);stroke:none"
               d="M 45.329,72.321 C 45.315,72.17 45.305,72.015 45.305,71.858 v 0 c 0,-2.043 1.177,-3.809 2.89,-4.664 v 0 l 19.12,-11.039 c 0.679,-0.041 1.359,-0.063 2.047,-0.063 v 0 c 8.124,0 15.626,2.72 21.685,7.312 v 0 L 89.51,62.516 c -0.538,-0.354 -1.182,-0.561 -1.872,-0.561 v 0 c -0.238,0 -0.467,0.033 -0.689,0.08 v 0 c -0.42,0.088 -0.814,0.244 -1.16,0.469 v 0 L 61.822,76.342 C 61.478,76.514 50.528,82.14 45.329,89.789 v 0 z" /></g></g></g></g><g
       id="g100"><g
         clip-path="url(#clipPath106)"
         id="g102"><g
           id="g108"><g
             id="g110"><path
               id="path120"
               style="fill:url(#linearGradient118);stroke:none"
               d="m 115.218,78.655 c -0.202,-0.935 -0.783,-1.727 -1.576,-2.204 v 0 C 113.628,76.441 91.047,63.404 91.047,63.404 v 0 C 84.071,59.369 77.486,56.092 69.362,56.092 v 0 c -0.688,0 -1.368,0.022 -2.047,0.063 v 0 l 17.5,-10.104 c 0.814,-0.527 1.782,-0.835 2.825,-0.835 v 0 c 1.057,0 2.04,0.312 2.859,0.854 v 0 l 17.066,9.851 c 0,0 0.296,0.447 0.425,0.658 v 0 c 4.451,6.082 7.423,15.051 7.531,23.203 v 0 c 0,0.006 0,0.008 -0.001,0.008 v 0 c -0.022,0 -0.246,-0.927 -0.302,-1.135" /></g></g></g></g><g
       id="g122"><g
         clip-path="url(#clipPath128)"
         id="g124"><g
           transform="translate(129.9097,115.5029)"
           id="g130"><path
             id="path132"
             style="fill:#2e252d;fill-opacity:1;fill-rule:nonzero;stroke:none"
             d="m 0,0 c 0,1.93 -1.049,3.605 -2.602,4.508 l -0.054,0.031 c -0.033,0.02 -0.067,0.041 -0.1,0.059 L -21.328,15.32 c -1.096,0.594 -2.21,1.006 -2.21,1.006 0,0 -0.999,0.428 -1.375,0.416 -6.678,-0.209 -17.594,-2.908 -18.486,-7.037 0.081,0.024 0.362,0.077 0.445,0.095 0.221,0.046 0.447,0.071 0.683,0.071 0.689,0 1.334,-0.207 1.871,-0.558 l 23.988,-13.85 c 0.021,-0.012 0.043,-0.025 0.064,-0.037 l 0.036,-0.022 c 0.328,-0.191 0.615,-0.437 0.861,-0.72 0.521,-0.598 0.842,-1.373 0.842,-2.229 0,-0.021 -0.002,-0.039 -0.002,-0.059 0.011,-0.007 0.021,-0.015 0.033,-0.021 0,0 -0.028,-1.238 0,-28.35 0.032,-13.888 -7.853,-23.587 -7.717,-23.579 1.142,0.663 19.539,11.281 19.539,11.281 0.033,0.018 0.067,0.04 0.1,0.059 l 0.054,0.029 v 0.001 C -1.049,-47.28 0,-45.603 0,-43.675 Z" /></g></g></g><g
       id="g134"><g
         clip-path="url(#clipPath140)"
         id="g136"><g
           id="g142"><g
             id="g144"><path
               id="path154"
               style="fill:url(#linearGradient152);stroke:none"
               d="m 84.815,141.28 -18.97,-10.953 -3.127,-1.806 c -1.896,-4.505 -2.951,-9.465 -2.951,-14.68 v 0 c 0,-1.656 0.117,-3.283 0.322,-4.883 v 0 c 0.279,0.889 0.91,1.621 1.733,2.031 v 0 l 23.967,13.838 c 0.28,0.182 11.748,6.191 20.255,6.097 v 0 c 0.854,-0.01 1.698,-0.042 2.537,-0.101 v 0 L 90.499,141.26 c -0.819,0.542 -1.802,0.858 -2.859,0.858 v 0 c -1.043,0 -2.011,-0.31 -2.825,-0.838" /></g></g></g></g></g></svg>